<svg width="174" height="48" viewBox="0 0 174 48" fill="none" xmlns="http://www.w3.org/2000/svg">
<rect x="172.5" y="1.5" width="45" height="171" rx="13.5" transform="rotate(90 172.5 1.5)" fill="#41BBE8" stroke="#181818" stroke-width="3"/>
<path d="M24.2945 15.6836L25.1734 15.8789C25.3036 18.0273 25.4534 21.6016 25.6227 26.6016C28.1617 22.0833 29.9065 18.4505 30.857 15.7031C31.0523 15.5469 31.2411 15.4688 31.4234 15.4688C31.7099 15.4688 31.9443 15.638 32.1266 15.9766C32.3219 16.3151 32.426 16.6992 32.4391 17.1289C32.4781 18.3398 32.5107 20.3841 32.5367 23.2617C32.5758 26.1393 32.6279 28.2878 32.693 29.707C32.5758 30.0977 32.3544 30.293 32.0289 30.293C31.7945 30.293 31.5667 30.1953 31.3453 30C31.124 29.8177 30.9872 29.5898 30.9352 29.3164C30.9742 28.1836 30.9938 26.4453 30.9938 24.1016C31.0068 21.7578 31.0198 20.1758 31.0328 19.3555C30.7464 19.8503 30.2451 20.7878 29.5289 22.168C28.8128 23.5482 28.1487 24.7331 27.5367 25.7227C26.9378 26.7122 26.3193 27.5716 25.6813 28.3008L25.7594 29.8828C25.6422 30.2865 25.4143 30.4883 25.0758 30.4883C24.8414 30.4883 24.6135 30.3906 24.3922 30.1953C24.1839 30 24.0536 29.7656 24.0016 29.4922C24.0406 28.3854 24.0797 26.2174 24.1188 22.9883C24.1578 19.7591 24.2164 17.3242 24.2945 15.6836ZM36.6469 25.1758L36.5688 24.082C36.6078 24.082 36.6664 24.0885 36.7445 24.1016C36.8357 24.1016 36.9008 24.1016 36.9398 24.1016C38.2549 24.1016 38.9125 23.5286 38.9125 22.3828C38.7693 21.3802 38.2159 20.8789 37.2523 20.8789C36.8878 20.8789 36.3539 20.9831 35.6508 21.1914L35.2992 20.625C35.8461 20.1172 36.6273 19.8633 37.643 19.8633C38.3591 19.8633 38.9581 20.0456 39.4398 20.4102C39.9216 20.7747 40.1625 21.3086 40.1625 22.0117C40.1625 22.4414 40.0779 22.8646 39.9086 23.2812C39.7393 23.6849 39.518 23.9909 39.2445 24.1992C39.7393 24.3034 40.1234 24.6419 40.3969 25.2148C40.6833 25.7747 40.8266 26.4062 40.8266 27.1094C40.8266 28.0208 40.5336 28.8151 39.9477 29.4922C39.3617 30.1693 38.6065 30.5078 37.682 30.5078C37.2263 30.5078 36.6794 30.3776 36.0414 30.1172C35.4034 29.8568 35.0844 29.5312 35.0844 29.1406C35.0844 28.8672 35.2602 28.7305 35.6117 28.7305C35.8461 28.7305 36.1521 28.8411 36.5297 29.0625C36.9073 29.2708 37.2198 29.375 37.4672 29.375C38.0141 29.375 38.4958 29.1341 38.9125 28.6523C39.3292 28.1706 39.5375 27.6367 39.5375 27.0508C39.5375 26.4258 39.3161 25.957 38.8734 25.6445C38.4438 25.319 37.8904 25.1562 37.2133 25.1562C36.9529 25.1562 36.7641 25.1628 36.6469 25.1758ZM51.2844 20.3711L52.6125 20.2539C53.2635 22.0117 53.9276 25.2865 54.6047 30.0781C54.3833 30.1302 54.162 30.1562 53.9406 30.1562C53.7453 30.1562 53.5174 30.1237 53.257 30.0586C53.0747 29.3424 52.8534 28.0794 52.593 26.2695C52.3456 24.4596 52.1242 23.1771 51.9289 22.4219C51.2909 23.4635 50.4315 25.3776 49.3508 28.1641C49.2596 28.1771 49.0969 28.2031 48.8625 28.2422C48.6411 28.2812 48.4719 28.3008 48.3547 28.3008C48.2115 28.3008 48.0422 28.2812 47.8469 28.2422C47.6385 27.7083 47.326 26.8555 46.9094 25.6836C46.5057 24.4987 46.1802 23.6068 45.9328 23.0078C44.6828 26.2109 43.9016 28.5807 43.5891 30.1172L42.8273 29.9023C42.8924 28.9128 43.2505 27.1875 43.9016 24.7266C44.5526 22.2526 44.9432 20.6771 45.0734 20C45.2297 20 45.4055 20.0195 45.6008 20.0586C45.8091 20.0846 45.9654 20.0977 46.0695 20.0977C46.4081 20.6836 46.8703 21.8099 47.4563 23.4766C48.0422 25.1302 48.4328 26.1654 48.6281 26.582C49.6177 23.7695 50.5031 21.6992 51.2844 20.3711ZM64.4766 28.1055L64.6719 28.9648C64.099 29.1732 63.2461 29.4076 62.1133 29.668C60.9935 29.9154 60.1602 30.0391 59.6133 30.0391C59.0534 30.0391 58.5651 29.8568 58.1484 29.4922C57.7318 29.1146 57.4193 28.6393 57.2109 28.0664C57.0026 27.4805 56.8464 26.9076 56.7422 26.3477C56.651 25.7747 56.6055 25.2148 56.6055 24.668C56.6055 21.4128 58.0768 19.7852 61.0195 19.7852C61.7227 19.7852 62.3411 20.013 62.875 20.4688C63.4089 20.9115 63.6758 21.4909 63.6758 22.207C63.6758 22.5977 63.5651 22.9427 63.3438 23.2422C63.1354 23.5417 62.875 23.7826 62.5625 23.9648C62.263 24.1341 61.8724 24.2904 61.3906 24.4336C60.9219 24.5768 60.5052 24.681 60.1406 24.7461C59.776 24.8112 59.3398 24.8828 58.832 24.9609C58.3242 25.0391 57.9727 25.0977 57.7773 25.1367C57.7904 25.5143 57.8099 25.8464 57.8359 26.1328C57.875 26.4193 57.9401 26.7318 58.0312 27.0703C58.1354 27.3958 58.2656 27.6693 58.4219 27.8906C58.5911 28.099 58.819 28.2747 59.1055 28.418C59.3919 28.5612 59.7305 28.6328 60.1211 28.6328C60.5898 28.6328 61.1628 28.5938 61.8398 28.5156C62.5169 28.4245 63.1159 28.3333 63.6367 28.2422C64.1706 28.151 64.4505 28.1055 64.4766 28.1055ZM57.8555 23.9258C59.6263 23.418 61.0781 22.8841 62.2109 22.3242C62.1198 21.8945 61.9961 21.582 61.8398 21.3867C61.6836 21.1914 61.4492 21.0938 61.1367 21.0938C60.3424 21.0938 59.6198 21.3672 58.9688 21.9141C58.3307 22.4609 57.9596 23.1315 57.8555 23.9258ZM72.493 20.0977L73.3719 20.293L73.8211 29.7656C73.7039 30.1562 73.476 30.3516 73.1375 30.3516C72.9031 30.3516 72.6753 30.2539 72.4539 30.0586C72.2326 29.8763 72.0958 29.6484 72.0438 29.375C72.0438 29.3359 72.1023 28.2357 72.2195 26.0742V25.918C71.8549 25.8919 71.3146 25.8789 70.5984 25.8789C69.5177 25.8789 68.7039 25.8464 68.157 25.7812C68.2221 26.5365 68.3068 27.7539 68.4109 29.4336C68.2938 29.8372 68.0659 30.0391 67.7273 30.0391C67.493 30.0391 67.2651 29.9479 67.0438 29.7656C66.8354 29.5703 66.7052 29.3359 66.6531 29.0625C66.6922 28.4115 66.7117 27.7604 66.7117 27.1094C66.7117 26.6927 66.7052 26.0677 66.6922 25.2344C66.6792 24.401 66.6727 23.7826 66.6727 23.3789C66.6727 22.1289 66.7117 21.0807 66.7898 20.2344L67.6688 20.4492C67.9292 23.2747 68.0659 24.7266 68.0789 24.8047C70.3055 24.9219 71.4513 24.9805 71.5164 24.9805C72.0503 24.9805 72.3172 24.9479 72.3172 24.8828C72.3172 24.6224 72.3432 23.7956 72.3953 22.4023C72.4474 21.0091 72.4799 20.2409 72.493 20.0977ZM78.3219 28.3789C78.3219 28.6003 78.3349 28.8932 78.3609 29.2578C78.2438 29.6615 78.0159 29.8633 77.6773 29.8633C77.443 29.8633 77.2151 29.7721 76.9938 29.5898C76.7854 29.3945 76.6552 29.1602 76.6031 28.8867C76.6422 27.832 76.6878 26.2891 76.7398 24.2578C76.8049 22.2266 76.8505 20.8529 76.8766 20.1367L77.775 19.9805C77.9313 20.8138 78.0289 21.9206 78.068 23.3008C78.107 24.681 78.1591 25.7096 78.2242 26.3867C78.4716 26.0221 79.1747 25.0716 80.3336 23.5352C81.4924 21.9987 82.2802 20.8529 82.6969 20.0977C82.9833 20.0456 83.1656 20.0195 83.2438 20.0195C83.4911 20.0195 83.6604 20.1302 83.7516 20.3516C83.8557 20.5729 83.9208 20.9896 83.9469 21.6016L84.318 29.6484C84.2008 30.0391 83.9729 30.2344 83.6344 30.2344C83.4 30.2344 83.1721 30.1432 82.9508 29.9609C82.7424 29.7656 82.6122 29.5312 82.5602 29.2578C82.5732 28.8281 82.6057 27.7799 82.6578 26.1133C82.7229 24.4336 82.775 23.2422 82.8141 22.5391C80.5875 25.0781 79.0901 27.0247 78.3219 28.3789ZM86.4945 21.0352L86.3188 20.1758C88.0635 20.0716 90.8109 19.9284 94.5609 19.7461C94.8734 19.7591 95.1404 19.8763 95.3617 20.0977C95.5831 20.319 95.6938 20.5534 95.6938 20.8008C95.6938 21.1914 95.4333 21.4128 94.9125 21.4648L91.2602 21.2891C91.3253 22.2656 91.3578 23.6914 91.3578 25.5664C91.3708 27.4284 91.3969 28.7891 91.4359 29.6484C91.3188 30.026 91.0909 30.2148 90.7523 30.2148C90.531 30.2148 90.3161 30.1237 90.1078 29.9414C89.8995 29.7591 89.7693 29.5378 89.7172 29.2773C89.8995 26.0742 90.0883 23.3854 90.2836 21.2109L86.4945 21.0352ZM97.7531 20.0977L98.632 20.293C98.6581 20.7096 98.6971 21.1979 98.7492 21.7578C98.8143 22.3177 98.8859 22.9557 98.9641 23.6719C99.4849 23.5156 99.9797 23.4375 100.448 23.4375C101.008 23.4375 101.529 23.5482 102.011 23.7695C102.493 23.9779 102.903 24.2578 103.241 24.6094C103.58 24.9609 103.847 25.3646 104.042 25.8203C104.238 26.263 104.335 26.7188 104.335 27.1875C104.335 27.6432 104.238 28.0599 104.042 28.4375C103.847 28.8151 103.586 29.1406 103.261 29.4141C102.935 29.6745 102.558 29.8763 102.128 30.0195C101.698 30.1758 101.243 30.2539 100.761 30.2539C100.67 30.2539 100.468 30.2474 100.155 30.2344C99.843 30.2214 99.5109 30.1888 99.1594 30.1367C98.8208 30.0977 98.5148 30.0391 98.2414 29.9609C97.968 29.8828 97.8247 29.7721 97.8117 29.6289C97.8117 29.4076 97.8052 29.1081 97.7922 28.7305C97.7922 28.3398 97.7857 27.9102 97.7727 27.4414C97.7727 26.9727 97.7661 26.4844 97.7531 25.9766C97.7401 25.4557 97.7271 24.9544 97.7141 24.4727C97.7141 23.9909 97.7076 23.5482 97.6945 23.1445C97.6945 22.7409 97.6945 22.4219 97.6945 22.1875C97.6945 21.4583 97.7141 20.7617 97.7531 20.0977ZM99.1398 24.8828L98.9641 28.8086C99.4849 28.9909 99.9797 29.082 100.448 29.082C100.813 29.082 101.145 29.0234 101.445 28.9062C101.757 28.776 102.017 28.6133 102.226 28.418C102.434 28.2096 102.597 27.9753 102.714 27.7148C102.831 27.4544 102.89 27.181 102.89 26.8945C102.89 26.6081 102.831 26.3411 102.714 26.0938C102.597 25.8333 102.421 25.6055 102.187 25.4102C101.952 25.2148 101.666 25.0651 101.327 24.9609C100.989 24.8438 100.605 24.7852 100.175 24.7852C100.032 24.7852 99.8755 24.7982 99.7063 24.8242C99.537 24.8372 99.3482 24.8568 99.1398 24.8828ZM115.231 28.3789C115.231 28.6003 115.244 28.8932 115.27 29.2578C115.153 29.6615 114.925 29.8633 114.587 29.8633C114.352 29.8633 114.124 29.7721 113.903 29.5898C113.695 29.3945 113.565 29.1602 113.513 28.8867C113.552 27.832 113.597 26.2891 113.649 24.2578C113.714 22.2266 113.76 20.8529 113.786 20.1367L114.684 19.9805C114.841 20.8138 114.938 21.9206 114.977 23.3008C115.016 24.681 115.068 25.7096 115.134 26.3867C115.381 26.0221 116.084 25.0716 117.243 23.5352C118.402 21.9987 119.19 20.8529 119.606 20.0977C119.893 20.0456 120.075 20.0195 120.153 20.0195C120.401 20.0195 120.57 20.1302 120.661 20.3516C120.765 20.5729 120.83 20.9896 120.856 21.6016L121.227 29.6484C121.11 30.0391 120.882 30.2344 120.544 30.2344C120.309 30.2344 120.082 30.1432 119.86 29.9609C119.652 29.7656 119.522 29.5312 119.47 29.2578C119.483 28.8281 119.515 27.7799 119.567 26.1133C119.632 24.4336 119.684 23.2422 119.723 22.5391C117.497 25.0781 115.999 27.0247 115.231 28.3789ZM131.685 20.3711L133.013 20.2539C133.664 22.0117 134.328 25.2865 135.005 30.0781C134.784 30.1302 134.563 30.1562 134.341 30.1562C134.146 30.1562 133.918 30.1237 133.658 30.0586C133.476 29.3424 133.254 28.0794 132.994 26.2695C132.746 24.4596 132.525 23.1771 132.33 22.4219C131.692 23.4635 130.832 25.3776 129.752 28.1641C129.66 28.1771 129.498 28.2031 129.263 28.2422C129.042 28.2812 128.873 28.3008 128.755 28.3008C128.612 28.3008 128.443 28.2812 128.248 28.2422C128.039 27.7083 127.727 26.8555 127.31 25.6836C126.907 24.4987 126.581 23.6068 126.334 23.0078C125.084 26.2109 124.302 28.5807 123.99 30.1172L123.228 29.9023C123.293 28.9128 123.651 27.1875 124.302 24.7266C124.953 22.2526 125.344 20.6771 125.474 20C125.63 20 125.806 20.0195 126.002 20.0586C126.21 20.0846 126.366 20.0977 126.47 20.0977C126.809 20.6836 127.271 21.8099 127.857 23.4766C128.443 25.1302 128.834 26.1654 129.029 26.582C130.018 23.7695 130.904 21.6992 131.685 20.3711ZM143.705 19.8633L143.998 30.3516C143.868 30.7422 143.647 30.9375 143.334 30.9375C143.113 30.9375 142.892 30.8464 142.67 30.6641C142.462 30.4818 142.332 30.2604 142.28 30L142.475 25.7617C141.928 26.1133 141.362 26.2956 140.776 26.3086C140.281 27.9362 139.656 29.1276 138.901 29.8828C138.159 30.638 136.967 31.2435 135.327 31.6992L135.014 30.8594C137.449 30.2474 138.836 28.6393 139.174 26.0352C138.549 25.7747 138.028 25.3776 137.612 24.8438C137.208 24.3099 137.006 23.6979 137.006 23.0078C137.006 21.6276 137.358 20.7096 138.061 20.2539C138.764 19.7982 139.877 19.5703 141.401 19.5703C142.195 19.5703 142.963 19.668 143.705 19.8633ZM142.631 24.1211L142.534 21.0352C142.078 20.8919 141.407 20.8203 140.522 20.8203C139.897 20.8203 139.363 20.9635 138.92 21.25C138.478 21.5234 138.256 21.9727 138.256 22.5977C138.256 23.3008 138.536 23.9062 139.096 24.4141C139.656 24.9089 140.268 25.1562 140.932 25.1562C141.713 25.1562 142.28 24.8112 142.631 24.1211Z" fill="#111111"/>
</svg>
