<svg width="192" height="48" viewBox="0 0 192 48" fill="none" xmlns="http://www.w3.org/2000/svg">
<rect x="190.5" y="1.5" width="45" height="189" rx="13.5" transform="rotate(90 190.5 1.5)" fill="#41BBE8" stroke="#181818" stroke-width="3"/>
<path d="M25.5535 15.6836L26.4324 15.8789C26.5626 18.0273 26.7124 21.6016 26.8816 26.6016C29.4207 22.0833 31.1655 18.4505 32.116 15.7031C32.3113 15.5469 32.5001 15.4688 32.6824 15.4688C32.9689 15.4688 33.2033 15.638 33.3855 15.9766C33.5809 16.3151 33.685 16.6992 33.698 17.1289C33.7371 18.3398 33.7697 20.3841 33.7957 23.2617C33.8348 26.1393 33.8868 28.2878 33.952 29.707C33.8348 30.0977 33.6134 30.293 33.2879 30.293C33.0535 30.293 32.8256 30.1953 32.6043 30C32.3829 29.8177 32.2462 29.5898 32.1941 29.3164C32.2332 28.1836 32.2527 26.4453 32.2527 24.1016C32.2658 21.7578 32.2788 20.1758 32.2918 19.3555C32.0053 19.8503 31.504 20.7878 30.7879 22.168C30.0717 23.5482 29.4077 24.7331 28.7957 25.7227C28.1967 26.7122 27.5783 27.5716 26.9402 28.3008L27.0184 29.8828C26.9012 30.2865 26.6733 30.4883 26.3348 30.4883C26.1004 30.4883 25.8725 30.3906 25.6512 30.1953C25.4428 30 25.3126 29.7656 25.2605 29.4922C25.2996 28.3854 25.3387 26.2174 25.3777 22.9883C25.4168 19.7591 25.4754 17.3242 25.5535 15.6836ZM37.9059 25.1758L37.8277 24.082C37.8668 24.082 37.9254 24.0885 38.0035 24.1016C38.0947 24.1016 38.1598 24.1016 38.1988 24.1016C39.5139 24.1016 40.1715 23.5286 40.1715 22.3828C40.0283 21.3802 39.4749 20.8789 38.5113 20.8789C38.1467 20.8789 37.6129 20.9831 36.9098 21.1914L36.5582 20.625C37.1051 20.1172 37.8863 19.8633 38.9019 19.8633C39.6181 19.8633 40.2171 20.0456 40.6988 20.4102C41.1806 20.7747 41.4215 21.3086 41.4215 22.0117C41.4215 22.4414 41.3368 22.8646 41.1676 23.2812C40.9983 23.6849 40.7769 23.9909 40.5035 24.1992C40.9983 24.3034 41.3824 24.6419 41.6559 25.2148C41.9423 25.7747 42.0855 26.4062 42.0855 27.1094C42.0855 28.0208 41.7926 28.8151 41.2066 29.4922C40.6207 30.1693 39.8655 30.5078 38.941 30.5078C38.4853 30.5078 37.9384 30.3776 37.3004 30.1172C36.6624 29.8568 36.3434 29.5312 36.3434 29.1406C36.3434 28.8672 36.5191 28.7305 36.8707 28.7305C37.1051 28.7305 37.4111 28.8411 37.7887 29.0625C38.1663 29.2708 38.4788 29.375 38.7262 29.375C39.273 29.375 39.7548 29.1341 40.1715 28.6523C40.5881 28.1706 40.7965 27.6367 40.7965 27.0508C40.7965 26.4258 40.5751 25.957 40.1324 25.6445C39.7027 25.319 39.1493 25.1562 38.4723 25.1562C38.2118 25.1562 38.023 25.1628 37.9059 25.1758ZM52.5434 20.3711L53.8715 20.2539C54.5225 22.0117 55.1866 25.2865 55.8637 30.0781C55.6423 30.1302 55.421 30.1562 55.1996 30.1562C55.0043 30.1562 54.7764 30.1237 54.516 30.0586C54.3337 29.3424 54.1124 28.0794 53.8519 26.2695C53.6046 24.4596 53.3832 23.1771 53.1879 22.4219C52.5499 23.4635 51.6905 25.3776 50.6098 28.1641C50.5186 28.1771 50.3559 28.2031 50.1215 28.2422C49.9001 28.2812 49.7309 28.3008 49.6137 28.3008C49.4704 28.3008 49.3012 28.2812 49.1059 28.2422C48.8975 27.7083 48.585 26.8555 48.1684 25.6836C47.7647 24.4987 47.4392 23.6068 47.1918 23.0078C45.9418 26.2109 45.1605 28.5807 44.848 30.1172L44.0863 29.9023C44.1514 28.9128 44.5095 27.1875 45.1605 24.7266C45.8116 22.2526 46.2022 20.6771 46.3324 20C46.4887 20 46.6644 20.0195 46.8598 20.0586C47.0681 20.0846 47.2243 20.0977 47.3285 20.0977C47.6671 20.6836 48.1293 21.8099 48.7152 23.4766C49.3012 25.1302 49.6918 26.1654 49.8871 26.582C50.8767 23.7695 51.7621 21.6992 52.5434 20.3711ZM65.7355 28.1055L65.9309 28.9648C65.3579 29.1732 64.5051 29.4076 63.3723 29.668C62.2525 29.9154 61.4191 30.0391 60.8723 30.0391C60.3124 30.0391 59.8241 29.8568 59.4074 29.4922C58.9908 29.1146 58.6783 28.6393 58.4699 28.0664C58.2616 27.4805 58.1053 26.9076 58.0012 26.3477C57.91 25.7747 57.8644 25.2148 57.8644 24.668C57.8644 21.4128 59.3358 19.7852 62.2785 19.7852C62.9816 19.7852 63.6001 20.013 64.134 20.4688C64.6678 20.9115 64.9348 21.4909 64.9348 22.207C64.9348 22.5977 64.8241 22.9427 64.6027 23.2422C64.3944 23.5417 64.134 23.7826 63.8215 23.9648C63.522 24.1341 63.1314 24.2904 62.6496 24.4336C62.1809 24.5768 61.7642 24.681 61.3996 24.7461C61.035 24.8112 60.5988 24.8828 60.091 24.9609C59.5832 25.0391 59.2316 25.0977 59.0363 25.1367C59.0493 25.5143 59.0689 25.8464 59.0949 26.1328C59.134 26.4193 59.1991 26.7318 59.2902 27.0703C59.3944 27.3958 59.5246 27.6693 59.6809 27.8906C59.8501 28.099 60.078 28.2747 60.3644 28.418C60.6509 28.5612 60.9894 28.6328 61.3801 28.6328C61.8488 28.6328 62.4217 28.5938 63.0988 28.5156C63.7759 28.4245 64.3749 28.3333 64.8957 28.2422C65.4296 28.151 65.7095 28.1055 65.7355 28.1055ZM59.1144 23.9258C60.8853 23.418 62.3371 22.8841 63.4699 22.3242C63.3788 21.8945 63.2551 21.582 63.0988 21.3867C62.9426 21.1914 62.7082 21.0938 62.3957 21.0938C61.6014 21.0938 60.8788 21.3672 60.2277 21.9141C59.5897 22.4609 59.2186 23.1315 59.1144 23.9258ZM73.7519 20.0977L74.6309 20.293L75.0801 29.7656C74.9629 30.1562 74.735 30.3516 74.3965 30.3516C74.1621 30.3516 73.9342 30.2539 73.7129 30.0586C73.4915 29.8763 73.3548 29.6484 73.3027 29.375C73.3027 29.3359 73.3613 28.2357 73.4785 26.0742V25.918C73.1139 25.8919 72.5736 25.8789 71.8574 25.8789C70.7767 25.8789 69.9629 25.8464 69.416 25.7812C69.4811 26.5365 69.5658 27.7539 69.6699 29.4336C69.5527 29.8372 69.3249 30.0391 68.9863 30.0391C68.7519 30.0391 68.5241 29.9479 68.3027 29.7656C68.0944 29.5703 67.9642 29.3359 67.9121 29.0625C67.9512 28.4115 67.9707 27.7604 67.9707 27.1094C67.9707 26.6927 67.9642 26.0677 67.9512 25.2344C67.9381 24.401 67.9316 23.7826 67.9316 23.3789C67.9316 22.1289 67.9707 21.0807 68.0488 20.2344L68.9277 20.4492C69.1881 23.2747 69.3249 24.7266 69.3379 24.8047C71.5644 24.9219 72.7103 24.9805 72.7754 24.9805C73.3092 24.9805 73.5762 24.9479 73.5762 24.8828C73.5762 24.6224 73.6022 23.7956 73.6543 22.4023C73.7064 21.0091 73.7389 20.2409 73.7519 20.0977ZM79.5809 28.3789C79.5809 28.6003 79.5939 28.8932 79.6199 29.2578C79.5027 29.6615 79.2749 29.8633 78.9363 29.8633C78.702 29.8633 78.4741 29.7721 78.2527 29.5898C78.0444 29.3945 77.9142 29.1602 77.8621 28.8867C77.9012 27.832 77.9467 26.2891 77.9988 24.2578C78.0639 22.2266 78.1095 20.8529 78.1355 20.1367L79.034 19.9805C79.1902 20.8138 79.2879 21.9206 79.327 23.3008C79.366 24.681 79.4181 25.7096 79.4832 26.3867C79.7306 26.0221 80.4337 25.0716 81.5926 23.5352C82.7514 21.9987 83.5392 20.8529 83.9559 20.0977C84.2423 20.0456 84.4246 20.0195 84.5027 20.0195C84.7501 20.0195 84.9194 20.1302 85.0105 20.3516C85.1147 20.5729 85.1798 20.9896 85.2059 21.6016L85.577 29.6484C85.4598 30.0391 85.2319 30.2344 84.8934 30.2344C84.659 30.2344 84.4311 30.1432 84.2098 29.9609C84.0014 29.7656 83.8712 29.5312 83.8191 29.2578C83.8322 28.8281 83.8647 27.7799 83.9168 26.1133C83.9819 24.4336 84.034 23.2422 84.073 22.5391C81.8465 25.0781 80.3491 27.0247 79.5809 28.3789ZM87.7535 21.0352L87.5777 20.1758C89.3225 20.0716 92.0699 19.9284 95.8199 19.7461C96.1324 19.7591 96.3993 19.8763 96.6207 20.0977C96.8421 20.319 96.9527 20.5534 96.9527 20.8008C96.9527 21.1914 96.6923 21.4128 96.1715 21.4648L92.5191 21.2891C92.5842 22.2656 92.6168 23.6914 92.6168 25.5664C92.6298 27.4284 92.6559 28.7891 92.6949 29.6484C92.5777 30.026 92.3499 30.2148 92.0113 30.2148C91.79 30.2148 91.5751 30.1237 91.3668 29.9414C91.1585 29.7591 91.0283 29.5378 90.9762 29.2773C91.1585 26.0742 91.3473 23.3854 91.5426 21.2109L87.7535 21.0352ZM99.0121 20.0977L99.891 20.293C99.9171 20.7096 99.9561 21.1979 100.008 21.7578C100.073 22.3177 100.145 22.9557 100.223 23.6719C100.744 23.5156 101.239 23.4375 101.707 23.4375C102.267 23.4375 102.788 23.5482 103.27 23.7695C103.752 23.9779 104.162 24.2578 104.5 24.6094C104.839 24.9609 105.106 25.3646 105.301 25.8203C105.496 26.263 105.594 26.7188 105.594 27.1875C105.594 27.6432 105.496 28.0599 105.301 28.4375C105.106 28.8151 104.845 29.1406 104.52 29.4141C104.194 29.6745 103.817 29.8763 103.387 30.0195C102.957 30.1758 102.502 30.2539 102.02 30.2539C101.929 30.2539 101.727 30.2474 101.414 30.2344C101.102 30.2214 100.77 30.1888 100.418 30.1367C100.08 30.0977 99.7738 30.0391 99.5004 29.9609C99.227 29.8828 99.0837 29.7721 99.0707 29.6289C99.0707 29.4076 99.0642 29.1081 99.0512 28.7305C99.0512 28.3398 99.0447 27.9102 99.0316 27.4414C99.0316 26.9727 99.0251 26.4844 99.0121 25.9766C98.9991 25.4557 98.9861 24.9544 98.973 24.4727C98.973 23.9909 98.9665 23.5482 98.9535 23.1445C98.9535 22.7409 98.9535 22.4219 98.9535 22.1875C98.9535 21.4583 98.973 20.7617 99.0121 20.0977ZM100.399 24.8828L100.223 28.8086C100.744 28.9909 101.239 29.082 101.707 29.082C102.072 29.082 102.404 29.0234 102.704 28.9062C103.016 28.776 103.276 28.6133 103.485 28.418C103.693 28.2096 103.856 27.9753 103.973 27.7148C104.09 27.4544 104.149 27.181 104.149 26.8945C104.149 26.6081 104.09 26.3411 103.973 26.0938C103.856 25.8333 103.68 25.6055 103.446 25.4102C103.211 25.2148 102.925 25.0651 102.586 24.9609C102.248 24.8438 101.864 24.7852 101.434 24.7852C101.291 24.7852 101.135 24.7982 100.965 24.8242C100.796 24.8372 100.607 24.8568 100.399 24.8828ZM114.908 20.2344L121.49 20.293L121.939 29.7656C121.822 30.1562 121.594 30.3516 121.256 30.3516C121.021 30.3516 120.794 30.2539 120.572 30.0586C120.351 29.8763 120.214 29.6484 120.162 29.375C120.175 29.1406 120.195 28.4049 120.221 27.168C120.26 25.918 120.299 24.7266 120.338 23.5938C120.377 22.4479 120.403 21.7057 120.416 21.3672C120.051 21.3411 119.511 21.3281 118.795 21.3281C117.818 21.3281 117.005 21.2891 116.354 21.2109C116.393 21.6406 116.425 23.0273 116.451 25.3711C116.477 27.7018 116.503 29.056 116.529 29.4336C116.412 29.8372 116.184 30.0391 115.846 30.0391C115.611 30.0391 115.383 29.9479 115.162 29.7656C114.954 29.5703 114.824 29.3359 114.771 29.0625C114.811 28.4115 114.83 27.7604 114.83 27.1094C114.83 26.7708 114.824 26.2109 114.811 25.4297C114.798 24.6484 114.791 24.0299 114.791 23.5742C114.791 22.2331 114.83 21.1198 114.908 20.2344ZM124.721 25.8398C124.721 25.319 124.774 24.7396 124.878 24.1016C124.995 23.4635 125.164 22.793 125.386 22.0898C125.607 21.3867 125.939 20.8008 126.382 20.332C126.824 19.8633 127.339 19.6289 127.925 19.6289C129.175 19.6289 130.177 20.1953 130.932 21.3281C131.688 22.4479 132.065 23.6979 132.065 25.0781C132.065 25.6641 132 26.25 131.87 26.8359C131.753 27.4089 131.564 27.9753 131.304 28.5352C131.043 29.0951 130.665 29.5638 130.171 29.9414C129.689 30.306 129.123 30.5143 128.471 30.5664C127.274 30.4102 126.349 29.9023 125.698 29.043C125.047 28.1706 124.721 27.1029 124.721 25.8398ZM128.042 20.6445C127.586 20.6966 127.202 21.1133 126.889 21.8945C126.577 22.6758 126.375 23.4375 126.284 24.1797C126.193 24.9089 126.147 25.5534 126.147 26.1133C126.147 26.8424 126.369 27.5195 126.811 28.1445C127.267 28.7565 127.775 29.0625 128.335 29.0625C128.738 29.0625 129.103 28.9062 129.429 28.5938C129.754 28.2812 130.008 27.8971 130.19 27.4414C130.386 26.9727 130.529 26.5039 130.62 26.0352C130.724 25.5664 130.776 25.1497 130.776 24.7852C130.776 23.7174 130.535 22.7865 130.054 21.9922C129.572 21.1979 128.901 20.7487 128.042 20.6445ZM139.945 19.6289L140.746 19.375C140.889 19.8568 141.026 21.6667 141.156 24.8047C141.299 27.9297 141.397 29.6094 141.449 29.8438C141.332 30.2474 141.104 30.4492 140.765 30.4492C140.531 30.4492 140.303 30.3516 140.082 30.1562C139.873 29.9609 139.743 29.7266 139.691 29.4531C139.717 28.7109 139.743 27.5846 139.769 26.0742C139.092 26.2435 138.532 26.3281 138.089 26.3281C137.412 26.3281 136.826 26.1914 136.332 25.918C135.837 25.6445 135.453 25.2669 135.179 24.7852C134.919 24.3034 134.73 23.7956 134.613 23.2617C134.496 22.7148 134.437 22.1289 134.437 21.5039C134.437 21.0091 134.502 20.3581 134.632 19.5508L135.511 19.7656C135.524 19.9349 135.544 20.2604 135.57 20.7422C135.609 21.2109 135.642 21.5495 135.668 21.7578C135.694 21.9661 135.733 22.2656 135.785 22.6562C135.85 23.0339 135.934 23.3203 136.039 23.5156C136.156 23.6979 136.293 23.8997 136.449 24.1211C136.618 24.3424 136.826 24.4987 137.074 24.5898C137.334 24.681 137.634 24.7266 137.972 24.7266C138.402 24.7266 139.001 24.6029 139.769 24.3555C139.769 24.0169 139.802 23.2682 139.867 22.1094C139.932 20.9375 139.964 20.2083 139.964 19.9219C139.964 19.7526 139.958 19.6549 139.945 19.6289ZM143.606 21.0352L143.43 20.1758C145.175 20.0716 147.922 19.9284 151.672 19.7461C151.985 19.7591 152.252 19.8763 152.473 20.0977C152.694 20.319 152.805 20.5534 152.805 20.8008C152.805 21.1914 152.545 21.4128 152.024 21.4648L148.371 21.2891C148.437 22.2656 148.469 23.6914 148.469 25.5664C148.482 27.4284 148.508 28.7891 148.547 29.6484C148.43 30.026 148.202 30.2148 147.864 30.2148C147.642 30.2148 147.427 30.1237 147.219 29.9414C147.011 29.7591 146.881 29.5378 146.829 29.2773C147.011 26.0742 147.2 23.3854 147.395 21.2109L143.606 21.0352ZM156.212 35.7812L155.001 35.0977C155.535 34.1732 156.479 32.4154 157.833 29.8242C156.779 28.8867 155.971 27.4674 155.411 25.5664C154.851 23.6654 154.513 21.7643 154.396 19.8633L155.529 19.9219C155.594 20.2344 155.73 20.9505 155.939 22.0703C156.16 23.1771 156.336 23.9974 156.466 24.5312C156.596 25.0651 156.824 25.7357 157.15 26.543C157.488 27.3372 157.872 28.0078 158.302 28.5547C160.112 25.0781 161.017 22.2266 161.017 20V19.7852C161.694 19.8893 162.202 20.013 162.54 20.1562C162.332 21.5234 162.006 22.9167 161.564 24.3359C161.121 25.7552 160.568 27.1875 159.904 28.6328C159.239 30.0651 158.647 31.2695 158.126 32.2461C157.618 33.2227 156.98 34.401 156.212 35.7812Z" fill="#111111"/>
</svg>
