<svg width="192" height="48" viewBox="0 0 192 48" fill="none" xmlns="http://www.w3.org/2000/svg">
<rect x="190.5" y="1.5" width="45" height="189" rx="13.5" transform="rotate(90 190.5 1.5)" fill="#41BBE8" stroke="#181818" stroke-width="3"/>
<path d="M23.516 15.6836L24.3949 15.8789C24.5251 18.0273 24.6749 21.6016 24.8441 26.6016C27.3832 22.0833 29.128 18.4505 30.0785 15.7031C30.2738 15.5469 30.4626 15.4688 30.6449 15.4688C30.9314 15.4688 31.1658 15.638 31.348 15.9766C31.5434 16.3151 31.6475 16.6992 31.6605 17.1289C31.6996 18.3398 31.7322 20.3841 31.7582 23.2617C31.7973 26.1393 31.8493 28.2878 31.9145 29.707C31.7973 30.0977 31.5759 30.293 31.2504 30.293C31.016 30.293 30.7881 30.1953 30.5668 30C30.3454 29.8177 30.2087 29.5898 30.1566 29.3164C30.1957 28.1836 30.2152 26.4453 30.2152 24.1016C30.2283 21.7578 30.2413 20.1758 30.2543 19.3555C29.9678 19.8503 29.4665 20.7878 28.7504 22.168C28.0342 23.5482 27.3702 24.7331 26.7582 25.7227C26.1592 26.7122 25.5408 27.5716 24.9027 28.3008L24.9809 29.8828C24.8637 30.2865 24.6358 30.4883 24.2973 30.4883C24.0629 30.4883 23.835 30.3906 23.6137 30.1953C23.4053 30 23.2751 29.7656 23.223 29.4922C23.2621 28.3854 23.3012 26.2174 23.3402 22.9883C23.3793 19.7591 23.4379 17.3242 23.516 15.6836ZM35.8684 25.1758L35.7902 24.082C35.8293 24.082 35.8879 24.0885 35.966 24.1016C36.0572 24.1016 36.1223 24.1016 36.1613 24.1016C37.4764 24.1016 38.134 23.5286 38.134 22.3828C37.9908 21.3802 37.4374 20.8789 36.4738 20.8789C36.1092 20.8789 35.5754 20.9831 34.8723 21.1914L34.5207 20.625C35.0676 20.1172 35.8488 19.8633 36.8645 19.8633C37.5806 19.8633 38.1796 20.0456 38.6613 20.4102C39.1431 20.7747 39.384 21.3086 39.384 22.0117C39.384 22.4414 39.2993 22.8646 39.1301 23.2812C38.9608 23.6849 38.7395 23.9909 38.466 24.1992C38.9608 24.3034 39.3449 24.6419 39.6184 25.2148C39.9048 25.7747 40.048 26.4062 40.048 27.1094C40.048 28.0208 39.7551 28.8151 39.1691 29.4922C38.5832 30.1693 37.828 30.5078 36.9035 30.5078C36.4478 30.5078 35.9009 30.3776 35.2629 30.1172C34.6249 29.8568 34.3059 29.5312 34.3059 29.1406C34.3059 28.8672 34.4816 28.7305 34.8332 28.7305C35.0676 28.7305 35.3736 28.8411 35.7512 29.0625C36.1288 29.2708 36.4413 29.375 36.6887 29.375C37.2355 29.375 37.7173 29.1341 38.134 28.6523C38.5506 28.1706 38.759 27.6367 38.759 27.0508C38.759 26.4258 38.5376 25.957 38.0949 25.6445C37.6652 25.319 37.1118 25.1562 36.4348 25.1562C36.1743 25.1562 35.9855 25.1628 35.8684 25.1758ZM50.5059 20.3711L51.834 20.2539C52.485 22.0117 53.1491 25.2865 53.8262 30.0781C53.6048 30.1302 53.3835 30.1562 53.1621 30.1562C52.9668 30.1562 52.7389 30.1237 52.4785 30.0586C52.2962 29.3424 52.0749 28.0794 51.8145 26.2695C51.5671 24.4596 51.3457 23.1771 51.1504 22.4219C50.5124 23.4635 49.653 25.3776 48.5723 28.1641C48.4811 28.1771 48.3184 28.2031 48.084 28.2422C47.8626 28.2812 47.6934 28.3008 47.5762 28.3008C47.4329 28.3008 47.2637 28.2812 47.0684 28.2422C46.86 27.7083 46.5475 26.8555 46.1309 25.6836C45.7272 24.4987 45.4017 23.6068 45.1543 23.0078C43.9043 26.2109 43.123 28.5807 42.8105 30.1172L42.0488 29.9023C42.1139 28.9128 42.472 27.1875 43.123 24.7266C43.7741 22.2526 44.1647 20.6771 44.2949 20C44.4512 20 44.627 20.0195 44.8223 20.0586C45.0306 20.0846 45.1868 20.0977 45.291 20.0977C45.6296 20.6836 46.0918 21.8099 46.6777 23.4766C47.2637 25.1302 47.6543 26.1654 47.8496 26.582C48.8392 23.7695 49.7246 21.6992 50.5059 20.3711ZM63.698 28.1055L63.8934 28.9648C63.3204 29.1732 62.4676 29.4076 61.3348 29.668C60.215 29.9154 59.3816 30.0391 58.8348 30.0391C58.2749 30.0391 57.7866 29.8568 57.3699 29.4922C56.9533 29.1146 56.6408 28.6393 56.4324 28.0664C56.2241 27.4805 56.0678 26.9076 55.9637 26.3477C55.8725 25.7747 55.827 25.2148 55.827 24.668C55.827 21.4128 57.2983 19.7852 60.241 19.7852C60.9441 19.7852 61.5626 20.013 62.0965 20.4688C62.6303 20.9115 62.8973 21.4909 62.8973 22.207C62.8973 22.5977 62.7866 22.9427 62.5652 23.2422C62.3569 23.5417 62.0965 23.7826 61.784 23.9648C61.4845 24.1341 61.0939 24.2904 60.6121 24.4336C60.1434 24.5768 59.7267 24.681 59.3621 24.7461C58.9975 24.8112 58.5613 24.8828 58.0535 24.9609C57.5457 25.0391 57.1941 25.0977 56.9988 25.1367C57.0118 25.5143 57.0314 25.8464 57.0574 26.1328C57.0965 26.4193 57.1616 26.7318 57.2527 27.0703C57.3569 27.3958 57.4871 27.6693 57.6434 27.8906C57.8126 28.099 58.0405 28.2747 58.327 28.418C58.6134 28.5612 58.952 28.6328 59.3426 28.6328C59.8113 28.6328 60.3842 28.5938 61.0613 28.5156C61.7384 28.4245 62.3374 28.3333 62.8582 28.2422C63.3921 28.151 63.672 28.1055 63.698 28.1055ZM57.077 23.9258C58.8478 23.418 60.2996 22.8841 61.4324 22.3242C61.3413 21.8945 61.2176 21.582 61.0613 21.3867C60.9051 21.1914 60.6707 21.0938 60.3582 21.0938C59.5639 21.0938 58.8413 21.3672 58.1902 21.9141C57.5522 22.4609 57.1811 23.1315 57.077 23.9258ZM71.7145 20.0977L72.5934 20.293L73.0426 29.7656C72.9254 30.1562 72.6975 30.3516 72.359 30.3516C72.1246 30.3516 71.8967 30.2539 71.6754 30.0586C71.454 29.8763 71.3173 29.6484 71.2652 29.375C71.2652 29.3359 71.3238 28.2357 71.441 26.0742V25.918C71.0764 25.8919 70.5361 25.8789 69.8199 25.8789C68.7392 25.8789 67.9254 25.8464 67.3785 25.7812C67.4436 26.5365 67.5283 27.7539 67.6324 29.4336C67.5152 29.8372 67.2874 30.0391 66.9488 30.0391C66.7145 30.0391 66.4866 29.9479 66.2652 29.7656C66.0569 29.5703 65.9267 29.3359 65.8746 29.0625C65.9137 28.4115 65.9332 27.7604 65.9332 27.1094C65.9332 26.6927 65.9267 26.0677 65.9137 25.2344C65.9006 24.401 65.8941 23.7826 65.8941 23.3789C65.8941 22.1289 65.9332 21.0807 66.0113 20.2344L66.8902 20.4492C67.1506 23.2747 67.2874 24.7266 67.3004 24.8047C69.527 24.9219 70.6728 24.9805 70.7379 24.9805C71.2717 24.9805 71.5387 24.9479 71.5387 24.8828C71.5387 24.6224 71.5647 23.7956 71.6168 22.4023C71.6689 21.0091 71.7014 20.2409 71.7145 20.0977ZM77.5434 28.3789C77.5434 28.6003 77.5564 28.8932 77.5824 29.2578C77.4652 29.6615 77.2374 29.8633 76.8988 29.8633C76.6645 29.8633 76.4366 29.7721 76.2152 29.5898C76.0069 29.3945 75.8767 29.1602 75.8246 28.8867C75.8637 27.832 75.9092 26.2891 75.9613 24.2578C76.0264 22.2266 76.072 20.8529 76.098 20.1367L76.9965 19.9805C77.1527 20.8138 77.2504 21.9206 77.2895 23.3008C77.3285 24.681 77.3806 25.7096 77.4457 26.3867C77.6931 26.0221 78.3962 25.0716 79.5551 23.5352C80.7139 21.9987 81.5017 20.8529 81.9184 20.0977C82.2048 20.0456 82.3871 20.0195 82.4652 20.0195C82.7126 20.0195 82.8819 20.1302 82.973 20.3516C83.0772 20.5729 83.1423 20.9896 83.1684 21.6016L83.5395 29.6484C83.4223 30.0391 83.1944 30.2344 82.8559 30.2344C82.6215 30.2344 82.3936 30.1432 82.1723 29.9609C81.9639 29.7656 81.8337 29.5312 81.7816 29.2578C81.7947 28.8281 81.8272 27.7799 81.8793 26.1133C81.9444 24.4336 81.9965 23.2422 82.0355 22.5391C79.809 25.0781 78.3116 27.0247 77.5434 28.3789ZM85.716 21.0352L85.5402 20.1758C87.285 20.0716 90.0324 19.9284 93.7824 19.7461C94.0949 19.7591 94.3618 19.8763 94.5832 20.0977C94.8046 20.319 94.9152 20.5534 94.9152 20.8008C94.9152 21.1914 94.6548 21.4128 94.134 21.4648L90.4816 21.2891C90.5467 22.2656 90.5793 23.6914 90.5793 25.5664C90.5923 27.4284 90.6184 28.7891 90.6574 29.6484C90.5402 30.026 90.3124 30.2148 89.9738 30.2148C89.7525 30.2148 89.5376 30.1237 89.3293 29.9414C89.121 29.7591 88.9908 29.5378 88.9387 29.2773C89.121 26.0742 89.3098 23.3854 89.5051 21.2109L85.716 21.0352ZM96.9746 20.0977L97.8535 20.293C97.8796 20.7096 97.9186 21.1979 97.9707 21.7578C98.0358 22.3177 98.1074 22.9557 98.1855 23.6719C98.7064 23.5156 99.2012 23.4375 99.6699 23.4375C100.23 23.4375 100.751 23.5482 101.232 23.7695C101.714 23.9779 102.124 24.2578 102.463 24.6094C102.801 24.9609 103.068 25.3646 103.264 25.8203C103.459 26.263 103.557 26.7188 103.557 27.1875C103.557 27.6432 103.459 28.0599 103.264 28.4375C103.068 28.8151 102.808 29.1406 102.482 29.4141C102.157 29.6745 101.779 29.8763 101.35 30.0195C100.92 30.1758 100.464 30.2539 99.9824 30.2539C99.8913 30.2539 99.6895 30.2474 99.377 30.2344C99.0645 30.2214 98.7324 30.1888 98.3809 30.1367C98.0423 30.0977 97.7363 30.0391 97.4629 29.9609C97.1895 29.8828 97.0462 29.7721 97.0332 29.6289C97.0332 29.4076 97.0267 29.1081 97.0137 28.7305C97.0137 28.3398 97.0072 27.9102 96.9941 27.4414C96.9941 26.9727 96.9876 26.4844 96.9746 25.9766C96.9616 25.4557 96.9486 24.9544 96.9355 24.4727C96.9355 23.9909 96.929 23.5482 96.916 23.1445C96.916 22.7409 96.916 22.4219 96.916 22.1875C96.916 21.4583 96.9355 20.7617 96.9746 20.0977ZM98.3613 24.8828L98.1855 28.8086C98.7064 28.9909 99.2012 29.082 99.6699 29.082C100.035 29.082 100.367 29.0234 100.666 28.9062C100.979 28.776 101.239 28.6133 101.447 28.418C101.656 28.2096 101.818 27.9753 101.936 27.7148C102.053 27.4544 102.111 27.181 102.111 26.8945C102.111 26.6081 102.053 26.3411 101.936 26.0938C101.818 25.8333 101.643 25.6055 101.408 25.4102C101.174 25.2148 100.887 25.0651 100.549 24.9609C100.21 24.8438 99.8262 24.7852 99.3965 24.7852C99.2533 24.7852 99.097 24.7982 98.9277 24.8242C98.7585 24.8372 98.5697 24.8568 98.3613 24.8828ZM112.871 20.2344L119.453 20.293L119.902 29.7656C119.785 30.1562 119.557 30.3516 119.218 30.3516C118.984 30.3516 118.756 30.2539 118.535 30.0586C118.313 29.8763 118.177 29.6484 118.125 29.375C118.138 29.1406 118.157 28.4049 118.183 27.168C118.222 25.918 118.261 24.7266 118.3 23.5938C118.339 22.4479 118.365 21.7057 118.379 21.3672C118.014 21.3411 117.474 21.3281 116.757 21.3281C115.781 21.3281 114.967 21.2891 114.316 21.2109C114.355 21.6406 114.388 23.0273 114.414 25.3711C114.44 27.7018 114.466 29.056 114.492 29.4336C114.375 29.8372 114.147 30.0391 113.808 30.0391C113.574 30.0391 113.346 29.9479 113.125 29.7656C112.916 29.5703 112.786 29.3359 112.734 29.0625C112.773 28.4115 112.793 27.7604 112.793 27.1094C112.793 26.7708 112.786 26.2109 112.773 25.4297C112.76 24.6484 112.754 24.0299 112.754 23.5742C112.754 22.2331 112.793 21.1198 112.871 20.2344ZM123.387 21.5625L122.996 20.5664C123.335 20.2279 123.765 19.9609 124.286 19.7656C124.806 19.5573 125.321 19.4531 125.829 19.4531C128.029 19.4531 129.129 21.3542 129.129 25.1562C129.129 25.6771 129.097 26.4453 129.032 27.4609C128.98 28.4766 128.954 29.2383 128.954 29.7461C128.849 30.1497 128.648 30.3516 128.348 30.3516C128.114 30.3516 127.899 30.2344 127.704 30C127.508 29.7656 127.411 29.5052 127.411 29.2188C127.411 29.1276 127.417 29.0625 127.43 29.0234C126.623 29.8047 125.763 30.1953 124.852 30.1953C124.162 30.1953 123.556 29.9479 123.036 29.4531C122.528 28.9453 122.274 28.3333 122.274 27.6172C122.274 26.4062 122.743 25.3125 123.68 24.3359C124.631 23.3594 125.705 22.8711 126.903 22.8711C126.955 22.8711 127.007 22.8776 127.059 22.8906C127.111 22.8906 127.17 22.8971 127.235 22.9102C127.313 22.9232 127.371 22.9297 127.411 22.9297C127.306 21.4062 126.701 20.6445 125.594 20.6445C124.943 20.6445 124.207 20.9505 123.387 21.5625ZM127.469 27.6758C127.495 26.7643 127.508 26.0742 127.508 25.6055C127.508 25.2148 127.495 24.668 127.469 23.9648H127.313C126.388 23.9779 125.542 24.3229 124.774 25C124.019 25.6771 123.641 26.4974 123.641 27.4609C123.641 27.8776 123.765 28.2096 124.012 28.457C124.273 28.7044 124.585 28.8281 124.95 28.8281C125.523 28.8281 126.362 28.444 127.469 27.6758ZM132.146 19.7266L133.239 19.9219C133.239 20.1953 133.246 20.3971 133.259 20.5273C133.975 20.0716 134.698 19.8438 135.427 19.8438C136.612 19.8438 137.536 20.3516 138.2 21.3672C138.864 22.3828 139.196 23.5352 139.196 24.8242C139.196 25.4753 139.144 26.1003 139.04 26.6992C138.949 27.2852 138.78 27.8906 138.532 28.5156C138.285 29.1276 137.901 29.6224 137.38 30C136.872 30.3646 136.254 30.5469 135.525 30.5469C134.835 30.5469 134.17 30.3646 133.532 30C133.585 32.2786 133.63 33.9714 133.669 35.0781C133.552 35.4818 133.324 35.6836 132.986 35.6836C132.751 35.6836 132.523 35.5859 132.302 35.3906C132.094 35.2083 131.963 34.9805 131.911 34.707L132.146 19.7266ZM133.415 21.7969L133.474 28.1055C133.63 28.418 133.871 28.6719 134.196 28.8672C134.522 29.0495 134.88 29.1406 135.271 29.1406C135.779 29.1406 136.208 28.9779 136.56 28.6523C136.924 28.3268 137.178 27.8971 137.321 27.3633C137.478 26.8164 137.582 26.3086 137.634 25.8398C137.699 25.3711 137.732 24.8763 137.732 24.3555C137.732 22.1419 136.983 21.0352 135.486 21.0352C135.004 21.0352 134.555 21.1068 134.138 21.25C133.734 21.3802 133.493 21.5625 133.415 21.7969ZM141.979 25.8398C141.979 25.319 142.031 24.7396 142.135 24.1016C142.252 23.4635 142.421 22.793 142.643 22.0898C142.864 21.3867 143.196 20.8008 143.639 20.332C144.081 19.8633 144.596 19.6289 145.182 19.6289C146.432 19.6289 147.434 20.1953 148.189 21.3281C148.945 22.4479 149.322 23.6979 149.322 25.0781C149.322 25.6641 149.257 26.25 149.127 26.8359C149.01 27.4089 148.821 27.9753 148.561 28.5352C148.3 29.0951 147.923 29.5638 147.428 29.9414C146.946 30.306 146.38 30.5143 145.729 30.5664C144.531 30.4102 143.606 29.9023 142.955 29.043C142.304 28.1706 141.979 27.1029 141.979 25.8398ZM145.299 20.6445C144.843 20.6966 144.459 21.1133 144.146 21.8945C143.834 22.6758 143.632 23.4375 143.541 24.1797C143.45 24.9089 143.404 25.5534 143.404 26.1133C143.404 26.8424 143.626 27.5195 144.068 28.1445C144.524 28.7565 145.032 29.0625 145.592 29.0625C145.995 29.0625 146.36 28.9062 146.686 28.5938C147.011 28.2812 147.265 27.8971 147.447 27.4414C147.643 26.9727 147.786 26.5039 147.877 26.0352C147.981 25.5664 148.033 25.1497 148.033 24.7852C148.033 23.7174 147.792 22.7865 147.311 21.9922C146.829 21.1979 146.158 20.7487 145.299 20.6445ZM150.014 31.7578L149.702 30.918C150.132 30.7487 150.522 30.4818 150.874 30.1172C151.212 29.7526 151.492 29.375 151.714 28.9844C151.935 28.5807 152.124 28.0794 152.28 27.4805C152.436 26.8815 152.547 26.3607 152.612 25.918C152.69 25.4622 152.749 24.9023 152.788 24.2383C152.827 23.5742 152.846 23.0794 152.846 22.7539C152.86 22.4154 152.866 21.9661 152.866 21.4062C152.866 20.612 152.938 20.1367 153.081 19.9805C153.263 19.7852 154.272 19.6875 156.108 19.6875C157.554 19.6875 158.374 19.681 158.569 19.668C158.595 24.9544 158.66 28.3854 158.764 29.9609C158.634 30.3516 158.406 30.5469 158.081 30.5469C157.86 30.5469 157.645 30.4557 157.436 30.2734C157.228 30.0911 157.098 29.8698 157.046 29.6094C157.033 29.1016 157.026 28.3464 157.026 27.3438C157.026 26.849 157.026 26.1003 157.026 25.0977C157.039 24.0951 157.046 23.3398 157.046 22.832C157.046 21.8945 157.039 21.1914 157.026 20.7227C156.479 20.8138 155.939 20.8659 155.405 20.8789C154.871 20.8919 154.494 20.9115 154.272 20.9375C154.233 21.3672 154.201 22.0052 154.175 22.8516C154.149 23.6979 154.123 24.4466 154.096 25.0977C154.083 25.7357 154.005 26.4648 153.862 27.2852C153.719 28.0924 153.511 28.7826 153.237 29.3555C152.977 29.9154 152.567 30.4167 152.007 30.8594C151.46 31.3151 150.796 31.6146 150.014 31.7578ZM161.605 20.0977L162.484 20.293C162.51 20.7096 162.549 21.1979 162.601 21.7578C162.666 22.3177 162.738 22.9557 162.816 23.6719C163.337 23.5156 163.832 23.4375 164.3 23.4375C164.86 23.4375 165.381 23.5482 165.863 23.7695C166.345 23.9779 166.755 24.2578 167.093 24.6094C167.432 24.9609 167.699 25.3646 167.894 25.8203C168.089 26.263 168.187 26.7188 168.187 27.1875C168.187 27.6432 168.089 28.0599 167.894 28.4375C167.699 28.8151 167.438 29.1406 167.113 29.4141C166.787 29.6745 166.41 29.8763 165.98 30.0195C165.55 30.1758 165.095 30.2539 164.613 30.2539C164.522 30.2539 164.32 30.2474 164.007 30.2344C163.695 30.2214 163.363 30.1888 163.011 30.1367C162.673 30.0977 162.367 30.0391 162.093 29.9609C161.82 29.8828 161.677 29.7721 161.664 29.6289C161.664 29.4076 161.657 29.1081 161.644 28.7305C161.644 28.3398 161.638 27.9102 161.625 27.4414C161.625 26.9727 161.618 26.4844 161.605 25.9766C161.592 25.4557 161.579 24.9544 161.566 24.4727C161.566 23.9909 161.559 23.5482 161.546 23.1445C161.546 22.7409 161.546 22.4219 161.546 22.1875C161.546 21.4583 161.566 20.7617 161.605 20.0977ZM162.992 24.8828L162.816 28.8086C163.337 28.9909 163.832 29.082 164.3 29.082C164.665 29.082 164.997 29.0234 165.296 28.9062C165.609 28.776 165.869 28.6133 166.078 28.418C166.286 28.2096 166.449 27.9753 166.566 27.7148C166.683 27.4544 166.742 27.181 166.742 26.8945C166.742 26.6081 166.683 26.3411 166.566 26.0938C166.449 25.8333 166.273 25.6055 166.039 25.4102C165.804 25.2148 165.518 25.0651 165.179 24.9609C164.841 24.8438 164.457 24.7852 164.027 24.7852C163.884 24.7852 163.727 24.7982 163.558 24.8242C163.389 24.8372 163.2 24.8568 162.992 24.8828Z" fill="#111111"/>
</svg>
