<svg width="70" height="70" viewBox="0 0 70 70" fill="none" xmlns="http://www.w3.org/2000/svg">
<path d="M68.5 20L68.5 50C68.5 60.2173 60.2173 68.5 50 68.5L20 68.5C9.78273 68.5 1.5 60.2173 1.5 50L1.5 20C1.5 9.78273 9.78273 1.5 20 1.5L50 1.5C60.2173 1.5 68.5 9.78273 68.5 20Z" fill="#BC9CEA" stroke="black" stroke-width="3"/>
<path d="M20 36C20 36 20 41.5 20 44.5C20 47.5 27.5 51 33.5 51C39.5 51 47 47 47 44.5C47 42 47 36 47 36" stroke="black" stroke-width="2.4"/>
<path d="M33.2597 21C28.9805 21 13 29 13 31C13 33 29.5195 40 33.2597 40C37 40 53.5 33 53.5 31C53.5 29 37.539 21 33.2597 21Z" stroke="black" stroke-width="2.4"/>
<path d="M53.5 31V46" stroke="black" stroke-width="2.2"/>
<rect x="51" y="46" width="5" height="7" rx="2" stroke="black" stroke-width="2"/>
</svg>
