<svg width="40" height="40" viewBox="0 0 40 40" fill="none" xmlns="http://www.w3.org/2000/svg">
<rect x="38.5" y="1.5" width="37" height="37" rx="18.5" transform="rotate(90 38.5 1.5)" fill="#A783DB" stroke="#181818" stroke-width="3"/>
<path d="M17.2415 12.954V15.023C17.2415 16.1022 18.1163 16.977 19.1955 16.977H20.8047C21.8839 16.977 22.7587 16.1022 22.7587 15.023V12.954C22.7587 11.8748 21.8839 11 20.8047 11H19.1955C18.1163 11 17.2415 11.8748 17.2415 12.954Z" fill="white"/>
<path d="M20.8047 16.8621V16.977H19.1955V16.8621H20.8047ZM22.6438 15.023V12.954C22.6438 11.9383 21.8204 11.1149 20.8047 11.1149H19.1955C18.1798 11.1149 17.3564 11.9383 17.3564 12.954V15.023C17.3564 16.0387 18.1798 16.8621 19.1955 16.8621V16.977C18.1163 16.977 17.2415 16.1022 17.2415 15.023V12.954C17.2415 11.8748 18.1163 11 19.1955 11H20.8047C21.8839 11 22.7587 11.8748 22.7587 12.954V15.023C22.7587 16.1022 21.8839 16.977 20.8047 16.977V16.8621C21.8204 16.8621 22.6438 16.0387 22.6438 15.023Z" fill="white"/>
<path d="M17.2415 26.977V29.046C17.2415 30.1252 18.1163 31 19.1955 31H20.8047C21.8839 31 22.7587 30.1252 22.7587 29.046V26.977C22.7587 25.8979 21.8839 25.023 20.8047 25.023H19.1955C18.1163 25.023 17.2415 25.8979 17.2415 26.977Z" fill="white"/>
<path d="M20.8047 30.8851V31H19.1955V30.8851H20.8047ZM22.6438 29.046V26.977C22.6438 25.9613 21.8204 25.138 20.8047 25.138H19.1955C18.1798 25.138 17.3564 25.9613 17.3564 26.977V29.046C17.3564 30.0617 18.1798 30.8851 19.1955 30.8851V31C18.1163 31 17.2415 30.1252 17.2415 29.046V26.977C17.2415 25.8979 18.1163 25.023 19.1955 25.023H20.8047C21.8839 25.023 22.7587 25.8979 22.7587 26.977V29.046C22.7587 30.1252 21.8839 31 20.8047 31V30.8851C21.8204 30.8851 22.6438 30.0617 22.6438 29.046Z" fill="white"/>
<path d="M28.046 18.2414L25.977 18.2414C24.8978 18.2414 24.023 19.1162 24.023 20.1954L24.023 21.8046C24.023 22.8838 24.8978 23.7586 25.977 23.7586L28.046 23.7586C29.1252 23.7586 30 22.8838 30 21.8046L30 20.1954C30 19.1162 29.1252 18.2414 28.046 18.2414Z" fill="white"/>
<path d="M24.1379 21.8046L24.023 21.8046L24.023 20.1954L24.1379 20.1954L24.1379 21.8046ZM25.977 23.6437L28.046 23.6437C29.0617 23.6437 29.8851 22.8203 29.8851 21.8046L29.8851 20.1954C29.8851 19.1797 29.0617 18.3563 28.046 18.3563L25.977 18.3563C24.9613 18.3563 24.1379 19.1797 24.1379 20.1954L24.023 20.1954C24.023 19.1162 24.8978 18.2414 25.977 18.2414L28.046 18.2414C29.1252 18.2414 30 19.1162 30 20.1954L30 21.8046C30 22.8838 29.1252 23.7586 28.046 23.7586L25.977 23.7586C24.8978 23.7586 24.023 22.8838 24.023 21.8046L24.1379 21.8046C24.1379 22.8203 24.9613 23.6437 25.977 23.6437Z" fill="white"/>
<path d="M14.023 18.2414L11.9541 18.2414C10.8749 18.2414 10 19.1162 10 20.1954L10 21.8046C10 22.8838 10.8749 23.7586 11.9541 23.7586L14.023 23.7586C15.1022 23.7586 15.9771 22.8838 15.9771 21.8046L15.9771 20.1954C15.9771 19.1162 15.1022 18.2414 14.023 18.2414Z" fill="white"/>
<path d="M10.115 21.8046L10 21.8046L10 20.1954L10.115 20.1954L10.115 21.8046ZM11.9541 23.6437L14.023 23.6437C15.0387 23.6437 15.8621 22.8203 15.8621 21.8046L15.8621 20.1954C15.8621 19.1797 15.0387 18.3563 14.023 18.3563L11.9541 18.3563C10.9384 18.3563 10.115 19.1797 10.115 20.1954L10 20.1954C10 19.1162 10.8749 18.2414 11.9541 18.2414L14.023 18.2414C15.1022 18.2414 15.9771 19.1162 15.9771 20.1954L15.9771 21.8046C15.9771 22.8838 15.1022 23.7586 14.023 23.7586L11.9541 23.7586C10.8749 23.7586 10 22.8838 10 21.8046L10.115 21.8046C10.115 22.8203 10.9384 23.6437 11.9541 23.6437Z" fill="white"/>
<path d="M27.6796 24.6565L26.2166 23.1935C25.4535 22.4304 24.2163 22.4304 23.4532 23.1935L22.3153 24.3314C21.5522 25.0945 21.5522 26.3317 22.3153 27.0948L23.7783 28.5578C24.5414 29.3209 25.7786 29.3209 26.5417 28.5578L27.6796 27.4199C28.4427 26.6568 28.4427 25.4196 27.6796 24.6565Z" fill="white"/>
<path d="M22.3966 24.4127L22.3153 24.3314L23.4532 23.1935L23.5345 23.2748L22.3966 24.4127ZM22.3966 27.0135L23.8596 28.4765C24.5778 29.1947 25.7422 29.1947 26.4604 28.4765L27.5983 27.3386C28.3165 26.6204 28.3165 25.456 27.5983 24.7378L26.1353 23.2748C25.4171 22.5566 24.2527 22.5566 23.5345 23.2748L23.4532 23.1935C24.2163 22.4304 25.4535 22.4304 26.2166 23.1935L27.6796 24.6565C28.4427 25.4196 28.4427 26.6568 27.6796 27.4199L26.5417 28.5578C25.7786 29.3209 24.5414 29.3209 23.7783 28.5578L22.3153 27.0948C21.5522 26.3317 21.5522 25.0945 22.3153 24.3314L22.3966 24.4127C21.6784 25.1309 21.6784 26.2953 22.3966 27.0135Z" fill="white"/>
<path d="M17.7636 14.8557L16.3006 13.3927C15.5375 12.6296 14.3003 12.6296 13.5372 13.3927L12.3993 14.5306C11.6362 15.2936 11.6362 16.5309 12.3993 17.294L13.8623 18.7569C14.6254 19.52 15.8626 19.52 16.6257 18.7569L17.7636 17.6191C18.5267 16.856 18.5267 15.6188 17.7636 14.8557Z" fill="white"/>
<path d="M12.4806 14.6118L12.3993 14.5306L13.5372 13.3927L13.6185 13.474L12.4806 14.6118ZM12.4806 17.2127L13.9436 18.6757C14.6618 19.3939 15.8262 19.3939 16.5444 18.6757L17.6823 17.5378C18.4005 16.8196 18.4005 15.6551 17.6823 14.9369L16.2193 13.474C15.5011 12.7558 14.3367 12.7558 13.6185 13.474L13.5372 13.3927C14.3003 12.6296 15.5375 12.6296 16.3006 13.3927L17.7636 14.8557C18.5267 15.6188 18.5267 16.856 17.7636 17.6191L16.6257 18.7569C15.8626 19.52 14.6254 19.52 13.8623 18.7569L12.3993 17.294C11.6362 16.5309 11.6362 15.2936 12.3993 14.5306L12.4806 14.6118C11.7624 15.33 11.7624 16.4945 12.4806 17.2127Z" fill="white"/>
<path d="M16.3583 28.6152L17.8212 27.1523C18.5843 26.3892 18.5843 25.152 17.8212 24.3889L16.6834 23.251C15.9203 22.4879 14.6831 22.4879 13.92 23.251L12.457 24.714C11.6939 25.4771 11.6939 26.7143 12.457 27.4774L13.5949 28.6152C14.358 29.3783 15.5952 29.3783 16.3583 28.6152Z" fill="white"/>
<path d="M16.6021 23.3323L16.6834 23.251L17.8212 24.3889L17.74 24.4701L16.6021 23.3323ZM14.0012 23.3323L12.5383 24.7952C11.8201 25.5134 11.8201 26.6779 12.5383 27.3961L13.6761 28.534C14.3943 29.2522 15.5588 29.2522 16.277 28.534L17.74 27.071C18.4582 26.3528 18.4582 25.1883 17.74 24.4701L17.8212 24.3889C18.5843 25.152 18.5843 26.3892 17.8212 27.1523L16.3583 28.6152C15.5952 29.3783 14.358 29.3783 13.5949 28.6152L12.457 27.4774C11.6939 26.7143 11.6939 25.4771 12.457 24.714L13.92 23.251C14.6831 22.4879 15.9203 22.4879 16.6834 23.251L16.6021 23.3323C15.8839 22.6141 14.7194 22.6141 14.0012 23.3323Z" fill="white"/>
<path d="M26.159 18.6995L27.622 17.2366C28.3851 16.4735 28.3851 15.2362 27.622 14.4731L26.4842 13.3353C25.7211 12.5722 24.4838 12.5722 23.7207 13.3353L22.2578 14.7983C21.4947 15.5613 21.4947 16.7986 22.2578 17.5617L23.3956 18.6995C24.1587 19.4626 25.396 19.4626 26.159 18.6995Z" fill="white"/>
<path d="M26.4029 13.4166L26.4842 13.3353L27.622 14.4731L27.5408 14.5544L26.4029 13.4166ZM23.802 13.4166L22.339 14.8795C21.6208 15.5977 21.6208 16.7622 22.339 17.4804L23.4769 18.6183C24.1951 19.3365 25.3596 19.3365 26.0778 18.6183L27.5408 17.1553C28.259 16.4371 28.259 15.2726 27.5408 14.5544L27.622 14.4731C28.3851 15.2362 28.3851 16.4735 27.622 17.2366L26.159 18.6995C25.396 19.4626 24.1587 19.4626 23.3956 18.6995L22.2578 17.5617C21.4947 16.7986 21.4947 15.5613 22.2578 14.7983L23.7207 13.3353C24.4838 12.5722 25.7211 12.5722 26.4842 13.3353L26.4029 13.4166C25.6847 12.6983 24.5202 12.6983 23.802 13.4166Z" fill="white"/>
<path d="M17.3563 12.8988C17.3318 13.5102 16.6175 13.822 16.1533 13.4362L16.1314 13.4174L16.1111 13.3992L16.1876 13.3134L16.2081 13.3317L16.2265 13.3477C16.6181 13.6731 17.2206 13.4101 17.2413 12.8943L17.3563 12.8988Z" fill="white"/>
<path d="M22.6435 29.046C22.6435 28.4212 23.3659 28.0808 23.8467 28.466L23.8694 28.4848L24.0029 28.6002L23.9277 28.6871L23.7943 28.5718L23.7751 28.5559C23.3689 28.2304 22.7584 28.5181 22.7584 29.046L22.6435 29.046Z" fill="white"/>
<path d="M15.9919 28.7775C16.4459 28.2757 17.2738 28.5266 17.3809 29.1853L17.3854 29.217L17.4134 29.4411L17.3564 29.4483L17.2994 29.4554L17.2713 29.2314L17.2675 29.2041C17.1757 28.6397 16.4663 28.4245 16.0772 28.8546L15.9919 28.7775Z" fill="white"/>
<path d="M11.7781 23.5863C12.4605 23.5444 12.8878 24.303 12.5116 24.8627L12.4931 24.8892L12.2878 25.1717L12.1949 25.1041L12.4 24.8216L12.416 24.7988C12.7396 24.3174 12.372 23.665 11.785 23.701L11.7781 23.5863Z" fill="white"/>
<path d="M12.224 16.8932C12.7439 17.45 12.4016 18.3613 11.6437 18.4381L11.6084 18.4417L11.5968 18.3273L11.6321 18.3237C12.2954 18.2565 12.595 17.459 12.14 16.9717L12.224 16.8932Z" fill="white"/>
<path d="M11.4133 18.4157C11.3914 18.4149 11.3792 18.4138 11.3792 18.4138L11.4133 18.4157C11.5821 18.4217 12.3265 18.4119 12.4817 17.7817C12.6571 17.0697 12.1369 16.5173 12.1369 16.5173L13.7461 18.0115L13.5162 18.5288L11.4133 18.4157Z" fill="white"/>
<path d="M12.1761 16.4751L13.8153 17.9973L13.5527 18.5882L11.4103 18.473L11.4015 18.4725C11.3946 18.4722 11.3889 18.472 11.3845 18.4717C11.3814 18.4715 11.379 18.4714 11.3773 18.4712C11.3764 18.4712 11.3758 18.4711 11.3753 18.4711C11.375 18.471 11.3749 18.471 11.3747 18.471L11.3745 18.471L11.3823 18.3564L11.4155 18.3582L11.4522 18.3589C11.5519 18.3596 11.7439 18.3503 11.9334 18.283C12.1484 18.2066 12.3544 18.0582 12.426 17.7678L12.4333 17.7362C12.5044 17.41 12.4245 17.1198 12.3233 16.9072C12.2711 16.7975 12.2134 16.7093 12.1691 16.6486C12.1469 16.6183 12.1281 16.595 12.115 16.5794C12.1084 16.5716 12.1033 16.5656 12.0998 16.5618C12.0982 16.5599 12.0969 16.5586 12.0961 16.5577C12.0957 16.5573 12.0955 16.5569 12.0953 16.5567L12.0951 16.5566L12.1761 16.4751ZM12.4327 16.8704C12.5382 17.0967 12.6223 17.4084 12.5456 17.7605L12.5376 17.7953C12.4548 18.1316 12.2151 18.303 11.9794 18.3885L13.4799 18.4691L13.6769 18.0256L12.4327 16.8704Z" fill="white"/>
<path d="M15.6903 13.1592C15.6884 13.1569 15.6874 13.1558 15.6874 13.1558L15.6903 13.1592C15.7377 13.213 16.3461 13.8838 16.9542 13.5287C17.5873 13.159 17.5763 12.3793 17.5763 12.3793L17.6239 14.5748L17.0926 14.7698L15.6903 13.1592Z" fill="white"/>
<path d="M17.5207 12.3801L17.6336 12.378L17.682 14.6145L17.075 14.8374L15.6468 13.1969L15.6445 13.1941C15.6442 13.1938 15.6439 13.1937 15.6437 13.1935C15.6436 13.1934 15.6436 13.1932 15.6436 13.1932L15.6435 13.1931L15.7304 13.118L15.7335 13.1214C15.7563 13.1474 15.9148 13.3221 16.1396 13.4471C16.3649 13.5722 16.6458 13.6421 16.9249 13.4791L16.9527 13.4623C17.2344 13.2867 17.3762 13.0234 17.4476 12.7979C17.4844 12.6817 17.5023 12.5765 17.5108 12.5005C17.5151 12.4625 17.517 12.4319 17.5179 12.411C17.5184 12.4006 17.5185 12.3927 17.5186 12.3874C17.5186 12.3848 17.5186 12.3828 17.5186 12.3815C17.5186 12.381 17.5186 12.3805 17.5186 12.3803L17.5187 12.3801C17.5188 12.3801 17.5192 12.3801 17.5207 12.3801ZM17.53 12.9105C17.446 13.1346 17.293 13.3857 17.0136 13.5598L16.983 13.5783C16.671 13.7605 16.3604 13.6906 16.122 13.5677L17.1098 14.7022L17.5653 14.5349L17.53 12.9105Z" fill="white"/>
<path d="M22.6061 12.3481C22.6066 12.3452 22.6069 12.3437 22.6069 12.3437L22.6061 12.3481C22.595 12.4189 22.4681 13.3157 23.1298 13.5563C23.8189 13.8068 24.4114 13.3 24.4114 13.3L22.7535 14.74L22.2639 14.4561L22.6061 12.3481Z" fill="white"/>
<path d="M24.3756 13.2579L24.4494 13.3434L22.7604 14.8102L22.201 14.4859L22.5496 12.3389L22.5503 12.3354C22.5504 12.335 22.5503 12.3346 22.5503 12.3344C22.5503 12.3343 22.5505 12.3342 22.5505 12.3341L22.5505 12.3339L22.6638 12.3528L22.6631 12.3573C22.6578 12.3915 22.6247 12.6251 22.6723 12.8779C22.72 13.1311 22.8459 13.3917 23.1496 13.5022L23.1803 13.5128C23.4955 13.6172 23.7885 13.558 24.0076 13.4688C24.1205 13.4228 24.2128 13.3693 24.2767 13.3273C24.3087 13.3063 24.3335 13.2882 24.3501 13.2755C24.3583 13.2692 24.3646 13.2642 24.3686 13.2609C24.3707 13.2593 24.3722 13.258 24.3732 13.2572C24.3736 13.2568 24.3739 13.2565 24.3741 13.2564L24.3744 13.2563C24.3744 13.2564 24.3747 13.2568 24.3756 13.2579ZM23.9737 13.6041C23.7477 13.6827 23.4567 13.7255 23.1442 13.6221L23.1104 13.6103C22.7709 13.4868 22.6262 13.2033 22.5682 12.9414L22.3272 14.4262L22.7471 14.6696L23.9737 13.6041Z" fill="white"/>
<path d="M27.8166 16.6936C27.8189 16.6916 27.82 16.6906 27.82 16.6906L27.8166 16.6936C27.7631 16.7412 27.0957 17.3535 27.4543 17.9595C27.8276 18.5905 28.6072 18.5751 28.6072 18.5751L26.4121 18.6352L26.214 18.105L27.8166 16.6936Z" fill="white"/>
<path d="M28.6059 18.5197L28.6086 18.6326L26.3725 18.6937L26.1461 18.088L27.7785 16.6504L27.7813 16.6481C27.7816 16.6479 27.7817 16.6476 27.7819 16.6474C27.782 16.6473 27.7822 16.6473 27.7822 16.6473L27.7823 16.6471L27.8579 16.7337L27.8545 16.7367C27.8287 16.7597 27.6548 16.9192 27.5311 17.1447C27.4073 17.3707 27.339 17.652 27.5036 17.9302L27.5205 17.9578C27.6978 18.2386 27.9618 18.3789 28.1877 18.449C28.3041 18.4852 28.4094 18.5024 28.4855 18.5105C28.5235 18.5146 28.5541 18.5163 28.575 18.5171C28.5854 18.5175 28.5934 18.5176 28.5986 18.5176C28.6013 18.5176 28.6033 18.5176 28.6045 18.5176C28.6051 18.5176 28.6055 18.5176 28.6057 18.5176L28.606 18.5177C28.606 18.5178 28.6059 18.5183 28.6059 18.5197ZM28.0756 18.5321C27.8511 18.4493 27.5991 18.2977 27.4233 18.0194L27.4047 17.9888C27.2207 17.6779 27.2889 17.3669 27.4104 17.1278L26.2815 18.122L26.4514 18.5766L28.0756 18.5321Z" fill="white"/>
<path d="M28.5272 23.4062C28.5302 23.4062 28.5317 23.4062 28.5317 23.4062L28.5272 23.4062C28.4556 23.4059 27.5499 23.4167 27.4127 24.1073C27.2697 24.8265 27.8607 25.3351 27.8607 25.3351L26.1855 23.9152L26.3917 23.3881L28.5272 23.4062Z" fill="white"/>
<path d="M27.8967 25.2931L27.8234 25.379L26.117 23.9325L26.3525 23.3303L28.5276 23.3487L28.5312 23.3489C28.5316 23.3489 28.5319 23.3487 28.5321 23.3487C28.5323 23.3487 28.5324 23.3488 28.5325 23.3488L28.5326 23.3488L28.5312 23.4637L28.5266 23.4637C28.492 23.4636 28.2561 23.4664 28.0135 23.5519C27.7705 23.6375 27.532 23.8015 27.469 24.1185L27.4631 24.1504C27.4078 24.4778 27.5109 24.7585 27.6323 24.9614C27.6949 25.066 27.7618 25.1491 27.8131 25.2059C27.8387 25.2343 27.8604 25.2561 27.8754 25.2706C27.8829 25.2778 27.8888 25.2832 27.8926 25.2867C27.8946 25.2885 27.8961 25.2898 27.897 25.2906C27.8975 25.291 27.8978 25.2913 27.8979 25.2914L27.8981 25.2916C27.898 25.2917 27.8976 25.292 27.8967 25.2931ZM27.4934 24.9485C27.3814 24.737 27.2949 24.456 27.3497 24.1314L27.3561 24.0962C27.4266 23.7418 27.6849 23.5557 27.9349 23.4587L26.4307 23.446L26.2539 23.898L27.4934 24.9485Z" fill="white"/>
<path d="M24.2677 28.6882C24.2698 28.6902 24.2709 28.6913 24.2709 28.6913L24.2677 28.6882C24.2169 28.6376 23.565 28.0089 22.982 28.4039C22.375 28.8151 22.4381 29.5923 22.4381 29.5923L22.2439 27.4049L22.761 27.1748L24.2677 28.6882Z" fill="white"/>
<path d="M22.4936 29.5878L22.3811 29.5974L22.1834 27.3692L22.7741 27.1062L24.3088 28.6476L24.3112 28.6503C24.3115 28.6506 24.3118 28.6507 24.312 28.6509C24.3121 28.6509 24.3121 28.6511 24.3122 28.6512L24.3123 28.6513L24.2305 28.732L24.2273 28.7288C24.2027 28.7044 24.0329 28.5406 23.8003 28.431C23.5671 28.3211 23.2822 28.2702 23.0146 28.4515L22.988 28.4701C22.7186 28.6642 22.5948 28.9363 22.5386 29.166C22.5096 29.2844 22.4988 29.3906 22.4954 29.467C22.4937 29.5052 22.4938 29.5359 22.4943 29.5568C22.4945 29.5672 22.4949 29.5751 22.4952 29.5804C22.4954 29.583 22.4955 29.585 22.4956 29.5862C22.4956 29.5868 22.4957 29.5872 22.4957 29.5875L22.4956 29.5877C22.4955 29.5877 22.495 29.5877 22.4936 29.5878ZM22.4488 29.0592C22.5177 28.8301 22.6536 28.5693 22.9207 28.3768L22.9501 28.3563C23.2492 28.1537 23.5638 28.2028 23.8098 28.3094L22.7484 27.2434L22.3051 27.4408L22.4488 29.0592Z" fill="white"/>
<path d="M17.4678 29.6221C17.4678 29.6251 17.4679 29.6266 17.4679 29.6266L17.4678 29.6221C17.4656 29.5505 17.4242 28.6458 16.7294 28.5319C16.0058 28.4133 15.5174 29.0212 15.5174 29.0212L16.8799 27.299L17.4136 27.4873L17.4678 29.6221Z" fill="white"/>
<path d="M15.5605 29.0558L15.4722 28.9855L16.8602 27.2311L17.47 27.4462L17.5252 29.6206L17.5251 29.6243C17.5251 29.6247 17.5253 29.625 17.5253 29.6252C17.5253 29.6253 17.5252 29.6255 17.5252 29.6256L17.5252 29.6257L17.4103 29.6281L17.4102 29.6236C17.4091 29.589 17.3984 29.3533 17.3047 29.1138C17.2109 28.8737 17.039 28.6409 16.72 28.5887L16.6879 28.5839C16.3589 28.5397 16.0818 28.6522 15.8831 28.7804C15.7807 28.8465 15.6999 28.9162 15.6448 28.9693C15.6174 28.9959 15.5963 29.0183 15.5824 29.0338C15.5754 29.0415 15.5702 29.0476 15.5668 29.0516C15.5651 29.0536 15.5638 29.0551 15.5631 29.0561C15.5627 29.0565 15.5624 29.0568 15.5623 29.057L15.562 29.0572C15.5619 29.0571 15.5616 29.0567 15.5605 29.0558ZM15.8914 28.6411C16.0989 28.5221 16.3769 28.4261 16.7031 28.4699L16.7385 28.4752C17.0951 28.5336 17.2898 28.7854 17.3952 29.032L17.3571 27.5282L16.8994 27.3669L15.8914 28.6411Z" fill="white"/>
<path d="M12.0974 25.3802C12.095 25.3818 12.0937 25.3827 12.0937 25.3827L12.0974 25.3802C12.1566 25.3397 12.896 24.8167 12.6169 24.1702C12.3263 23.497 11.551 23.4138 11.551 23.4138L13.7361 23.6316L13.8656 24.1826L12.0974 25.3802Z" fill="white"/>
<path d="M11.5451 23.4689L11.5567 23.3566L13.7827 23.5785L13.9306 24.208L12.1297 25.4277L12.1266 25.4297C12.1263 25.4299 12.1261 25.4302 12.1259 25.4303C12.1258 25.4304 12.1257 25.4304 12.1256 25.4304L12.1255 25.4305L12.0614 25.3351L12.0652 25.3326C12.0937 25.313 12.2864 25.1768 12.4375 24.9687C12.589 24.7602 12.6922 24.4898 12.5641 24.193L12.5508 24.1634C12.4105 23.8625 12.1662 23.69 11.9511 23.5919C11.8401 23.5413 11.7379 23.5109 11.6634 23.4932C11.6262 23.4844 11.596 23.4788 11.5755 23.4754C11.5652 23.4737 11.5573 23.4726 11.5521 23.4719C11.5495 23.4716 11.5475 23.4713 11.5463 23.4712C11.5457 23.4711 11.5453 23.4711 11.545 23.471L11.5448 23.4709C11.5448 23.4708 11.5449 23.4703 11.5451 23.4689ZM12.0728 23.5237C12.285 23.6342 12.5158 23.8164 12.655 24.1147L12.6696 24.1474C12.8128 24.4791 12.7059 24.7789 12.5552 25.0007L13.8006 24.1572L13.6895 23.6847L12.0728 23.5237Z" fill="white"/>
<path d="M27.5993 24.8296L27.529 24.7443C27.1862 24.328 27.4461 23.6976 27.9827 23.644L27.9885 23.7012L27.9942 23.7583C27.5489 23.8028 27.3333 24.3259 27.6177 24.6713L27.688 24.7565L27.5993 24.8296Z" fill="white"/>
<path d="M27.9751 18.3547L27.9604 18.3512C27.3702 18.21 27.1681 17.4732 27.6037 17.0507L27.6437 17.0919L27.6837 17.1332C27.3132 17.4925 27.4851 18.1193 27.9871 18.2394L28.0019 18.2429L27.9751 18.3547Z" fill="white"/>
<path d="M23.7715 13.4589C23.3271 13.8098 22.6763 13.5104 22.6464 12.9523L22.6454 12.9255L22.6439 12.8401L22.7014 12.8391L22.7588 12.8381L22.7604 12.9235L22.7627 12.9679C22.8033 13.4194 23.3351 13.6569 23.7002 13.3687L23.7715 13.4589Z" fill="white"/>
<path d="M23.6781 21C23.6781 18.9686 22.0314 17.3218 20 17.3218C17.9686 17.3218 16.3218 18.9686 16.3218 21C16.3218 23.0314 17.9686 24.6781 20 24.6781C22.0314 24.6781 23.6781 23.0314 23.6781 21ZM25.977 21C25.977 24.301 23.301 26.977 20 26.977C16.6989 26.977 14.0229 24.301 14.0229 21C14.0229 17.6989 16.6989 15.0229 20 15.0229C23.301 15.0229 25.977 17.6989 25.977 21Z" fill="white"/>
<path d="M21.839 21C21.839 22.0157 21.0157 22.8391 20 22.8391C18.9843 22.8391 18.1609 22.0157 18.1609 21C18.1609 19.9843 18.9843 19.1609 20 19.1609C21.0157 19.1609 21.839 19.9843 21.839 21Z" fill="white"/>
</svg>
