<svg width="70" height="70" viewBox="0 0 70 70" fill="none" xmlns="http://www.w3.org/2000/svg">
<path d="M68.5 20L68.5 50C68.5 60.2173 60.2173 68.5 50 68.5L20 68.5C9.78273 68.5 1.5 60.2173 1.5 50L1.5 20C1.5 9.78273 9.78273 1.5 20 1.5L50 1.5C60.2173 1.5 68.5 9.78273 68.5 20Z" fill="#53C25A" stroke="black" stroke-width="3"/>
<path d="M52.5 46.5C52.5 46.5 52.4779 42.2613 52.5 39.5C52.5285 35.9369 51.8047 33.4289 52 30.5C52.1953 27.5711 52.3047 25.9289 52.5 23C52.6953 20.0711 51.5 13 51.5 13M51.5 13C51.5 13 52.7613 15.6366 54 17C55.313 18.4452 56 18.5 56.5 19M51.5 13C51.5 13 51.1555 15.0654 50 16.5C48.9607 17.7904 48 18.5 47.5 19" stroke="black" stroke-width="1.8"/>
<path d="M13 59C16.5 59.5 23 59.5 25 58C27 56.5 26.1106 56.4117 28.5 55C32.0304 52.9143 34.5 54.5 39.5 53C44.5 51.5 51 44 60.5 45.5" stroke="black" stroke-width="1.8"/>
<path d="M21.4985 36C21.4985 36 18.4979 35 17.4985 35.5C16.4991 36 17 46.5 17.4985 47C17.9971 47.5 20.997 47 21.4985 47M21.4985 36C21.4985 36 22.497 33.5 24.9985 33.5C27.5 33.5 26.5 36.5 31.5 36C32.7043 35.8796 33.5015 35.5 34.5 35.5C35.3284 35.5 35.8828 36.1799 36 37C36.1381 37.9665 35.5015 38.5 34 39C32.4985 39.5 29.2128 39.5 28.3693 41C28.0882 41.5 28 42.5 28.8693 43C30.0662 43.6884 30.7651 43.8825 32 44.5C33 45 34.5 46.5 36 48C37.5 49.5 37.5 50.5 36 51.5C35.1716 52.0523 34.204 51.704 33.5 51C32.5 50 32 49.5 30.5 48.5C29 47.5 27.8668 47.4521 26.5 47.101M21.4985 36C21.4985 36 21.8202 43.0561 21.6906 45.8656M21.4985 47C21.5984 47 21.6584 46.564 21.6906 45.8656M21.4985 47C21.4985 47 22.0273 49.4259 22 51C21.9655 52.991 20.1408 54.2036 21 56C21.4766 56.9965 21.8956 57.9811 23 58C23.9757 58.0167 24.3285 57.2095 24.9985 56.5C26.5679 54.8382 26.856 53.2811 27 51C27.0967 49.4679 26.5 47.101 26.5 47.101M21.6906 45.8656L26.5 47.101" stroke="black" stroke-width="1.8"/>
<circle cx="25.5" cy="30" r="3.6" stroke="black" stroke-width="1.8"/>
<rect x="36.6812" y="38.0953" width="13.3815" height="2.2" rx="1" transform="rotate(68.2172 36.6812 38.0953)" fill="black"/>
<rect x="46.1001" y="19.2" width="1.8" height="1.8" rx="0.9" transform="rotate(-48.3729 46.1001 19.2)" fill="black"/>
<rect x="59.2" y="45.56" width="1.8" height="1.8" rx="0.9" transform="rotate(-48.3729 59.2 45.56)" fill="black"/>
<rect x="11.7" y="59.05" width="1.8" height="1.8" rx="0.9" transform="rotate(-48.3729 11.7 59.05)" fill="black"/>
<rect x="55.1399" y="19" width="1.8" height="1.8" rx="0.9" transform="rotate(-48.3729 55.1399 19)" fill="black"/>
<path d="M56.4573 29.9611C56.0159 29.4087 55.3392 29.2781 54.1945 27.6961C53.1147 26.2038 52.1536 23.4436 52.1536 23.4436C52.1536 23.4436 51.5821 25.458 50.2747 26.7557C49.0987 27.9228 48.0652 28.5215 47.5128 28.963" stroke="black" stroke-width="1.8"/>
<rect x="46.1001" y="29" width="1.8" height="1.8" rx="0.9" transform="rotate(-42.006 46.1001 29)" fill="black"/>
<rect x="55.1001" y="29.7947" width="1.8" height="1.8" rx="0.9" transform="rotate(-42.006 55.1001 29.7947)" fill="black"/>
<path d="M57.4249 37.9689C56.8767 37.5224 56.1877 37.5377 54.7345 36.2336C53.3635 35.0032 51.8406 32.5086 51.8406 32.5086C51.8406 32.5086 51.7079 34.5983 50.7044 36.143C49.8017 37.5324 48.9182 38.3361 48.4716 38.8843" stroke="black" stroke-width="1.8"/>
<rect x="47.1001" y="39.2358" width="1.8" height="1.8" rx="0.9" transform="rotate(-54.2108 47.1001 39.2358)" fill="black"/>
<rect x="56.1001" y="38.1" width="1.8" height="1.8" rx="0.9" transform="rotate(-54.2108 56.1001 38.1)" fill="black"/>
<path d="M15.3001 10.4366C15.8484 10.8831 17.3991 10.8818 18.7798 12.2625C19.2798 12.7625 20.5 13.5 20.5 13.5C20.5 13.5 20.9796 12.2375 22.0001 11.5C23.343 10.5295 23.8069 10.0694 24.2534 9.52115" stroke="#191919" stroke-width="1.8"/>
<rect x="25.6001" y="9.16962" width="1.8" height="1.8" rx="0.9" transform="rotate(125.789 25.6001 9.16962)" fill="#191919"/>
<rect x="16.6001" y="10.284" width="1.8" height="1.8" rx="0.9" transform="rotate(125.789 16.6001 10.284)" fill="#191919"/>
<path d="M37.4183 17.2894C36 17.5 35.432 18.1099 34.5 18.5C33.5201 18.9101 32 20 32 20C32 20 31.6013 19.2027 31 18C30.5 17 29.5 16 28.4563 15.5059" stroke="#191919" stroke-width="1.8"/>
<rect width="1.8" height="1.78425" rx="0.892124" transform="matrix(0.516259 0.856433 0.863826 -0.50379 27.1001 15.13)" fill="#191919"/>
<rect width="1.8" height="1.78425" rx="0.892124" transform="matrix(0.516259 0.856433 0.863826 -0.50379 36.1201 16.9921)" fill="#191919"/>
<rect x="33.979" y="31.3419" width="3.5999" height="2.2" rx="1" transform="rotate(68.2172 33.979 31.3419)" fill="black"/>
</svg>
