<svg width="70" height="70" viewBox="0 0 70 70" fill="none" xmlns="http://www.w3.org/2000/svg">
<path d="M68.5 20L68.5 50C68.5 60.2173 60.2173 68.5 50 68.5L20 68.5C9.78273 68.5 1.5 60.2173 1.5 50L1.5 20C1.5 9.78273 9.78273 1.5 20 1.5L50 1.5C60.2173 1.5 68.5 9.78273 68.5 20Z" fill="#FAD188" stroke="black" stroke-width="3"/>
<circle cx="35.5" cy="26.5001" r="5.5" stroke="black" stroke-width="2.4"/>
<path d="M40.5882 42.0001C48.2422 42.926 54 45.6336 54 48.8296C54 52.7897 45.4934 56.0001 35 56.0001C24.5066 56.0001 16 52.7897 16 48.8296C16 45.6139 22.2433 42.9095 29.9706 42.0001" stroke="black" stroke-width="2.4"/>
<path d="M35.5 14.0001C28.5964 14.0001 23 19.8398 23 27.0435C23 33.1512 31.6263 45.4045 34.2512 48.9917C34.6317 49.5117 35.3855 49.5284 35.7859 49.0236C38.599 45.4777 48 33.1695 48 27.0435C48 19.8398 42.4036 14.0001 35.5 14.0001Z" stroke="black" stroke-width="2.4"/>
</svg>
