<svg width="70" height="70" viewBox="0 0 70 70" fill="none" xmlns="http://www.w3.org/2000/svg">
<path d="M68.5 20L68.5 50C68.5 60.2173 60.2173 68.5 50 68.5L20 68.5C9.78273 68.5 1.5 60.2173 1.5 50L1.5 20C1.5 9.78273 9.78273 1.5 20 1.5L50 1.5C60.2173 1.5 68.5 9.78273 68.5 20Z" fill="#ED8D8C" stroke="black" stroke-width="3"/>
<path d="M49.2401 29.718C51.8557 36.7229 51.1275 43.4651 47.6136 44.7772C44.7793 45.8355 39.1309 41.4742 36.5154 34.4693C33.8998 27.4644 35.2793 21.0346 38.1419 19.4102C41.404 17.559 46.6246 22.7131 49.2401 29.718Z" stroke="black" stroke-width="2.4"/>
<path d="M40.9247 41.2841C43.0979 40.4726 43.7094 36.7342 42.2905 32.9341C40.8715 29.1339 37.8196 26.4199 35.7863 27.5226" stroke="black" stroke-width="2.4"/>
<path d="M36.2666 21.5C31.2666 28 20.7646 32.4999 17.2656 34C13.7665 35.5 18.2666 47.5 21.7656 47C25.2645 46.4999 32.7666 43.9 46.2666 44.9" stroke="black" stroke-width="2.4"/>
<path d="M28 45.5C28 45.5 28.5 51.0001 30.5 52C32.5 52.9999 34 53.5 34.5 53C35 52.5 33.5 45.5 33.5 45.5" stroke="black" stroke-width="2.4"/>
</svg>
