<svg width="40" height="40" viewBox="0 0 40 40" fill="none" xmlns="http://www.w3.org/2000/svg">
<rect x="38.5" y="1.5" width="37" height="37" rx="18.5" transform="rotate(90 38.5 1.5)" fill="#E57F7E" stroke="#181818" stroke-width="3"/>
<path d="M17.2415 11.954V14.023C17.2415 15.1022 18.1163 15.977 19.1955 15.977H20.8047C21.8839 15.977 22.7587 15.1022 22.7587 14.023V11.954C22.7587 10.8748 21.8839 10 20.8047 10H19.1955C18.1163 10 17.2415 10.8748 17.2415 11.954Z" fill="white"/>
<path d="M20.8047 15.8621V15.977H19.1955V15.8621H20.8047ZM22.6438 14.023V11.954C22.6438 10.9383 21.8204 10.1149 20.8047 10.1149H19.1955C18.1798 10.1149 17.3564 10.9383 17.3564 11.954V14.023C17.3564 15.0387 18.1798 15.8621 19.1955 15.8621V15.977C18.1163 15.977 17.2415 15.1022 17.2415 14.023V11.954C17.2415 10.8748 18.1163 10 19.1955 10H20.8047C21.8839 10 22.7587 10.8748 22.7587 11.954V14.023C22.7587 15.1022 21.8839 15.977 20.8047 15.977V15.8621C21.8204 15.8621 22.6438 15.0387 22.6438 14.023Z" fill="white"/>
<path d="M17.2415 25.977V28.046C17.2415 29.1252 18.1163 30 19.1955 30H20.8047C21.8839 30 22.7587 29.1252 22.7587 28.046V25.977C22.7587 24.8979 21.8839 24.023 20.8047 24.023H19.1955C18.1163 24.023 17.2415 24.8979 17.2415 25.977Z" fill="white"/>
<path d="M20.8047 29.8851V30H19.1955V29.8851H20.8047ZM22.6438 28.046V25.977C22.6438 24.9613 21.8204 24.138 20.8047 24.138H19.1955C18.1798 24.138 17.3564 24.9613 17.3564 25.977V28.046C17.3564 29.0617 18.1798 29.8851 19.1955 29.8851V30C18.1163 30 17.2415 29.1252 17.2415 28.046V25.977C17.2415 24.8979 18.1163 24.023 19.1955 24.023H20.8047C21.8839 24.023 22.7587 24.8979 22.7587 25.977V28.046C22.7587 29.1252 21.8839 30 20.8047 30V29.8851C21.8204 29.8851 22.6438 29.0617 22.6438 28.046Z" fill="white"/>
<path d="M28.046 17.2414L25.977 17.2414C24.8978 17.2414 24.023 18.1162 24.023 19.1954L24.023 20.8046C24.023 21.8838 24.8978 22.7586 25.977 22.7586L28.046 22.7586C29.1252 22.7586 30 21.8838 30 20.8046L30 19.1954C30 18.1162 29.1252 17.2414 28.046 17.2414Z" fill="white"/>
<path d="M24.1379 20.8046L24.023 20.8046L24.023 19.1954L24.1379 19.1954L24.1379 20.8046ZM25.977 22.6437L28.046 22.6437C29.0617 22.6437 29.8851 21.8203 29.8851 20.8046L29.8851 19.1954C29.8851 18.1797 29.0617 17.3563 28.046 17.3563L25.977 17.3563C24.9613 17.3563 24.1379 18.1797 24.1379 19.1954L24.023 19.1954C24.023 18.1162 24.8978 17.2414 25.977 17.2414L28.046 17.2414C29.1252 17.2414 30 18.1162 30 19.1954L30 20.8046C30 21.8838 29.1252 22.7586 28.046 22.7586L25.977 22.7586C24.8978 22.7586 24.023 21.8838 24.023 20.8046L24.1379 20.8046C24.1379 21.8203 24.9613 22.6437 25.977 22.6437Z" fill="white"/>
<path d="M14.023 17.2414L11.9541 17.2414C10.8749 17.2414 10 18.1162 10 19.1954L10 20.8046C10 21.8838 10.8749 22.7586 11.9541 22.7586L14.023 22.7586C15.1022 22.7586 15.9771 21.8838 15.9771 20.8046L15.9771 19.1954C15.9771 18.1162 15.1022 17.2414 14.023 17.2414Z" fill="white"/>
<path d="M10.115 20.8046L10 20.8046L10 19.1954L10.115 19.1954L10.115 20.8046ZM11.9541 22.6437L14.023 22.6437C15.0387 22.6437 15.8621 21.8203 15.8621 20.8046L15.8621 19.1954C15.8621 18.1797 15.0387 17.3563 14.023 17.3563L11.9541 17.3563C10.9384 17.3563 10.115 18.1797 10.115 19.1954L10 19.1954C10 18.1162 10.8749 17.2414 11.9541 17.2414L14.023 17.2414C15.1022 17.2414 15.9771 18.1162 15.9771 19.1954L15.9771 20.8046C15.9771 21.8838 15.1022 22.7586 14.023 22.7586L11.9541 22.7586C10.8749 22.7586 10 21.8838 10 20.8046L10.115 20.8046C10.115 21.8203 10.9384 22.6437 11.9541 22.6437Z" fill="white"/>
<path d="M27.6796 23.6565L26.2166 22.1935C25.4535 21.4304 24.2163 21.4304 23.4532 22.1935L22.3153 23.3314C21.5522 24.0945 21.5522 25.3317 22.3153 26.0948L23.7783 27.5578C24.5414 28.3209 25.7786 28.3209 26.5417 27.5578L27.6796 26.4199C28.4427 25.6568 28.4427 24.4196 27.6796 23.6565Z" fill="white"/>
<path d="M22.3966 23.4127L22.3153 23.3314L23.4532 22.1935L23.5345 22.2748L22.3966 23.4127ZM22.3966 26.0135L23.8596 27.4765C24.5778 28.1947 25.7422 28.1947 26.4604 27.4765L27.5983 26.3386C28.3165 25.6204 28.3165 24.456 27.5983 23.7378L26.1353 22.2748C25.4171 21.5566 24.2527 21.5566 23.5345 22.2748L23.4532 22.1935C24.2163 21.4304 25.4535 21.4304 26.2166 22.1935L27.6796 23.6565C28.4427 24.4196 28.4427 25.6568 27.6796 26.4199L26.5417 27.5578C25.7786 28.3209 24.5414 28.3209 23.7783 27.5578L22.3153 26.0948C21.5522 25.3317 21.5522 24.0945 22.3153 23.3314L22.3966 23.4127C21.6784 24.1309 21.6784 25.2953 22.3966 26.0135Z" fill="white"/>
<path d="M17.7636 13.8557L16.3006 12.3927C15.5375 11.6296 14.3003 11.6296 13.5372 12.3927L12.3993 13.5306C11.6362 14.2936 11.6362 15.5309 12.3993 16.294L13.8623 17.7569C14.6254 18.52 15.8626 18.52 16.6257 17.7569L17.7636 16.6191C18.5267 15.856 18.5267 14.6188 17.7636 13.8557Z" fill="white"/>
<path d="M12.4806 13.6118L12.3993 13.5306L13.5372 12.3927L13.6185 12.474L12.4806 13.6118ZM12.4806 16.2127L13.9436 17.6757C14.6618 18.3939 15.8262 18.3939 16.5444 17.6757L17.6823 16.5378C18.4005 15.8196 18.4005 14.6551 17.6823 13.9369L16.2193 12.474C15.5011 11.7558 14.3367 11.7558 13.6185 12.474L13.5372 12.3927C14.3003 11.6296 15.5375 11.6296 16.3006 12.3927L17.7636 13.8557C18.5267 14.6188 18.5267 15.856 17.7636 16.6191L16.6257 17.7569C15.8626 18.52 14.6254 18.52 13.8623 17.7569L12.3993 16.294C11.6362 15.5309 11.6362 14.2936 12.3993 13.5306L12.4806 13.6118C11.7624 14.33 11.7624 15.4945 12.4806 16.2127Z" fill="white"/>
<path d="M16.3583 27.6152L17.8212 26.1523C18.5843 25.3892 18.5843 24.152 17.8212 23.3889L16.6834 22.251C15.9203 21.4879 14.6831 21.4879 13.92 22.251L12.457 23.714C11.6939 24.4771 11.6939 25.7143 12.457 26.4774L13.5949 27.6152C14.358 28.3783 15.5952 28.3783 16.3583 27.6152Z" fill="white"/>
<path d="M16.6021 22.3323L16.6834 22.251L17.8212 23.3889L17.74 23.4701L16.6021 22.3323ZM14.0012 22.3323L12.5383 23.7952C11.8201 24.5134 11.8201 25.6779 12.5383 26.3961L13.6761 27.534C14.3943 28.2522 15.5588 28.2522 16.277 27.534L17.74 26.071C18.4582 25.3528 18.4582 24.1883 17.74 23.4701L17.8212 23.3889C18.5843 24.152 18.5843 25.3892 17.8212 26.1523L16.3583 27.6152C15.5952 28.3783 14.358 28.3783 13.5949 27.6152L12.457 26.4774C11.6939 25.7143 11.6939 24.4771 12.457 23.714L13.92 22.251C14.6831 21.4879 15.9203 21.4879 16.6834 22.251L16.6021 22.3323C15.8839 21.6141 14.7194 21.6141 14.0012 22.3323Z" fill="white"/>
<path d="M26.159 17.6995L27.622 16.2366C28.3851 15.4735 28.3851 14.2362 27.622 13.4731L26.4842 12.3353C25.7211 11.5722 24.4838 11.5722 23.7207 12.3353L22.2578 13.7983C21.4947 14.5613 21.4947 15.7986 22.2578 16.5617L23.3956 17.6995C24.1587 18.4626 25.396 18.4626 26.159 17.6995Z" fill="white"/>
<path d="M26.4029 12.4166L26.4842 12.3353L27.622 13.4731L27.5408 13.5544L26.4029 12.4166ZM23.802 12.4166L22.339 13.8795C21.6208 14.5977 21.6208 15.7622 22.339 16.4804L23.4769 17.6183C24.1951 18.3365 25.3596 18.3365 26.0778 17.6183L27.5408 16.1553C28.259 15.4371 28.259 14.2726 27.5408 13.5544L27.622 13.4731C28.3851 14.2362 28.3851 15.4735 27.622 16.2366L26.159 17.6995C25.396 18.4626 24.1587 18.4626 23.3956 17.6995L22.2578 16.5617C21.4947 15.7986 21.4947 14.5613 22.2578 13.7983L23.7207 12.3353C24.4838 11.5722 25.7211 11.5722 26.4842 12.3353L26.4029 12.4166C25.6847 11.6983 24.5202 11.6983 23.802 12.4166Z" fill="white"/>
<path d="M17.3563 11.8988C17.3318 12.5102 16.6175 12.822 16.1533 12.4362L16.1314 12.4174L16.1111 12.3992L16.1876 12.3134L16.2081 12.3317L16.2265 12.3477C16.6181 12.6731 17.2206 12.4101 17.2413 11.8943L17.3563 11.8988Z" fill="white"/>
<path d="M22.6435 28.046C22.6435 27.4212 23.3659 27.0808 23.8467 27.466L23.8694 27.4848L24.0029 27.6002L23.9277 27.6871L23.7943 27.5718L23.7751 27.5559C23.3689 27.2304 22.7584 27.5181 22.7584 28.046L22.6435 28.046Z" fill="white"/>
<path d="M15.9919 27.7775C16.4459 27.2757 17.2738 27.5266 17.3809 28.1853L17.3854 28.217L17.4134 28.4411L17.3564 28.4483L17.2994 28.4554L17.2713 28.2314L17.2675 28.2041C17.1757 27.6397 16.4663 27.4245 16.0772 27.8546L15.9919 27.7775Z" fill="white"/>
<path d="M11.7781 22.5863C12.4605 22.5444 12.8878 23.303 12.5116 23.8627L12.4931 23.8892L12.2878 24.1717L12.1949 24.1041L12.4 23.8216L12.416 23.7988C12.7396 23.3174 12.372 22.665 11.785 22.701L11.7781 22.5863Z" fill="white"/>
<path d="M12.224 15.8932C12.7439 16.45 12.4016 17.3613 11.6437 17.4381L11.6084 17.4417L11.5968 17.3273L11.6321 17.3237C12.2954 17.2565 12.595 16.459 12.14 15.9717L12.224 15.8932Z" fill="white"/>
<path d="M11.4133 17.4157C11.3914 17.4149 11.3792 17.4138 11.3792 17.4138L11.4133 17.4157C11.5821 17.4217 12.3265 17.4119 12.4817 16.7817C12.6571 16.0697 12.1369 15.5173 12.1369 15.5173L13.7461 17.0115L13.5162 17.5288L11.4133 17.4157Z" fill="white"/>
<path d="M12.1761 15.4751L13.8153 16.9973L13.5527 17.5882L11.4103 17.473L11.4015 17.4725C11.3946 17.4722 11.3889 17.472 11.3845 17.4717C11.3814 17.4715 11.379 17.4714 11.3773 17.4712C11.3764 17.4712 11.3758 17.4711 11.3753 17.4711C11.375 17.471 11.3749 17.471 11.3747 17.471L11.3745 17.471L11.3823 17.3564L11.4155 17.3582L11.4522 17.3589C11.5519 17.3596 11.7439 17.3503 11.9334 17.283C12.1484 17.2066 12.3544 17.0582 12.426 16.7678L12.4333 16.7362C12.5044 16.41 12.4245 16.1198 12.3233 15.9072C12.2711 15.7975 12.2134 15.7093 12.1691 15.6486C12.1469 15.6183 12.1281 15.595 12.115 15.5794C12.1084 15.5716 12.1033 15.5656 12.0998 15.5618C12.0982 15.5599 12.0969 15.5586 12.0961 15.5577C12.0957 15.5573 12.0955 15.5569 12.0953 15.5567L12.0951 15.5566L12.1761 15.4751ZM12.4327 15.8704C12.5382 16.0967 12.6223 16.4084 12.5456 16.7605L12.5376 16.7953C12.4548 17.1316 12.2151 17.303 11.9794 17.3885L13.4799 17.4691L13.6769 17.0256L12.4327 15.8704Z" fill="white"/>
<path d="M15.6903 12.1592C15.6884 12.1569 15.6874 12.1558 15.6874 12.1558L15.6903 12.1592C15.7377 12.213 16.3461 12.8838 16.9542 12.5287C17.5873 12.159 17.5763 11.3793 17.5763 11.3793L17.6239 13.5748L17.0926 13.7698L15.6903 12.1592Z" fill="white"/>
<path d="M17.5207 11.3801L17.6336 11.378L17.682 13.6145L17.075 13.8374L15.6468 12.1969L15.6445 12.1941C15.6442 12.1938 15.6439 12.1937 15.6437 12.1935C15.6436 12.1934 15.6436 12.1932 15.6436 12.1932L15.6435 12.1931L15.7304 12.118L15.7335 12.1214C15.7563 12.1474 15.9148 12.3221 16.1396 12.4471C16.3649 12.5722 16.6458 12.6421 16.9249 12.4791L16.9527 12.4623C17.2344 12.2867 17.3762 12.0234 17.4476 11.7979C17.4844 11.6817 17.5023 11.5765 17.5108 11.5005C17.5151 11.4625 17.517 11.4319 17.5179 11.411C17.5184 11.4006 17.5185 11.3927 17.5186 11.3874C17.5186 11.3848 17.5186 11.3828 17.5186 11.3815C17.5186 11.381 17.5186 11.3805 17.5186 11.3803L17.5187 11.3801C17.5188 11.3801 17.5192 11.3801 17.5207 11.3801ZM17.53 11.9105C17.446 12.1346 17.293 12.3857 17.0136 12.5598L16.983 12.5783C16.671 12.7605 16.3604 12.6906 16.122 12.5677L17.1098 13.7022L17.5653 13.5349L17.53 11.9105Z" fill="white"/>
<path d="M22.6061 11.3481C22.6066 11.3452 22.6069 11.3437 22.6069 11.3437L22.6061 11.3481C22.595 11.4189 22.4681 12.3157 23.1298 12.5563C23.8189 12.8068 24.4114 12.3 24.4114 12.3L22.7535 13.74L22.2639 13.4561L22.6061 11.3481Z" fill="white"/>
<path d="M24.3756 12.2579L24.4494 12.3434L22.7604 13.8102L22.201 13.4859L22.5496 11.3389L22.5503 11.3354C22.5504 11.335 22.5503 11.3346 22.5503 11.3344C22.5503 11.3343 22.5505 11.3342 22.5505 11.3341L22.5505 11.3339L22.6638 11.3528L22.6631 11.3573C22.6578 11.3915 22.6247 11.6251 22.6723 11.8779C22.72 12.1311 22.8459 12.3917 23.1496 12.5022L23.1803 12.5128C23.4955 12.6172 23.7885 12.558 24.0076 12.4688C24.1205 12.4228 24.2128 12.3693 24.2767 12.3273C24.3087 12.3063 24.3335 12.2882 24.3501 12.2755C24.3583 12.2692 24.3646 12.2642 24.3686 12.2609C24.3707 12.2593 24.3722 12.258 24.3732 12.2572C24.3736 12.2568 24.3739 12.2565 24.3741 12.2564L24.3744 12.2563C24.3744 12.2564 24.3747 12.2568 24.3756 12.2579ZM23.9737 12.6041C23.7477 12.6827 23.4567 12.7255 23.1442 12.6221L23.1104 12.6103C22.7709 12.4868 22.6262 12.2033 22.5682 11.9414L22.3272 13.4262L22.7471 13.6696L23.9737 12.6041Z" fill="white"/>
<path d="M27.8166 15.6936C27.8189 15.6916 27.82 15.6906 27.82 15.6906L27.8166 15.6936C27.7631 15.7412 27.0957 16.3535 27.4543 16.9595C27.8276 17.5905 28.6072 17.5751 28.6072 17.5751L26.4121 17.6352L26.214 17.105L27.8166 15.6936Z" fill="white"/>
<path d="M28.6059 17.5197L28.6086 17.6326L26.3725 17.6937L26.1461 17.088L27.7785 15.6504L27.7813 15.6481C27.7816 15.6479 27.7817 15.6476 27.7819 15.6474C27.782 15.6473 27.7822 15.6473 27.7822 15.6473L27.7823 15.6471L27.8579 15.7337L27.8545 15.7367C27.8287 15.7597 27.6548 15.9192 27.5311 16.1447C27.4073 16.3707 27.339 16.652 27.5036 16.9302L27.5205 16.9578C27.6978 17.2386 27.9618 17.3789 28.1877 17.449C28.3041 17.4852 28.4094 17.5024 28.4855 17.5105C28.5235 17.5146 28.5541 17.5163 28.575 17.5171C28.5854 17.5175 28.5934 17.5176 28.5986 17.5176C28.6013 17.5176 28.6033 17.5176 28.6045 17.5176C28.6051 17.5176 28.6055 17.5176 28.6057 17.5176L28.606 17.5177C28.606 17.5178 28.6059 17.5183 28.6059 17.5197ZM28.0756 17.5321C27.8511 17.4493 27.5991 17.2977 27.4233 17.0194L27.4047 16.9888C27.2207 16.6779 27.2889 16.3669 27.4104 16.1278L26.2815 17.122L26.4514 17.5766L28.0756 17.5321Z" fill="white"/>
<path d="M28.5272 22.4062C28.5302 22.4062 28.5317 22.4062 28.5317 22.4062L28.5272 22.4062C28.4556 22.4059 27.5499 22.4167 27.4127 23.1073C27.2697 23.8265 27.8607 24.3351 27.8607 24.3351L26.1855 22.9152L26.3917 22.3881L28.5272 22.4062Z" fill="white"/>
<path d="M27.8967 24.2931L27.8234 24.379L26.117 22.9325L26.3525 22.3303L28.5276 22.3487L28.5312 22.3489C28.5316 22.3489 28.5319 22.3487 28.5321 22.3487C28.5323 22.3487 28.5324 22.3488 28.5325 22.3488L28.5326 22.3488L28.5312 22.4637L28.5266 22.4637C28.492 22.4636 28.2561 22.4664 28.0135 22.5519C27.7705 22.6375 27.532 22.8015 27.469 23.1185L27.4631 23.1504C27.4078 23.4778 27.5109 23.7585 27.6323 23.9614C27.6949 24.066 27.7618 24.1491 27.8131 24.2059C27.8387 24.2343 27.8604 24.2561 27.8754 24.2706C27.8829 24.2778 27.8888 24.2832 27.8926 24.2867C27.8946 24.2885 27.8961 24.2898 27.897 24.2906C27.8975 24.291 27.8978 24.2913 27.8979 24.2914L27.8981 24.2916C27.898 24.2917 27.8976 24.292 27.8967 24.2931ZM27.4934 23.9485C27.3814 23.737 27.2949 23.456 27.3497 23.1314L27.3561 23.0962C27.4266 22.7418 27.6849 22.5557 27.9349 22.4587L26.4307 22.446L26.2539 22.898L27.4934 23.9485Z" fill="white"/>
<path d="M24.2677 27.6882C24.2698 27.6902 24.2709 27.6913 24.2709 27.6913L24.2677 27.6882C24.2169 27.6376 23.565 27.0089 22.982 27.4039C22.375 27.8151 22.4381 28.5923 22.4381 28.5923L22.2439 26.4049L22.761 26.1748L24.2677 27.6882Z" fill="white"/>
<path d="M22.4936 28.5878L22.3811 28.5974L22.1834 26.3692L22.7741 26.1062L24.3088 27.6476L24.3112 27.6503C24.3115 27.6506 24.3118 27.6507 24.312 27.6509C24.3121 27.6509 24.3121 27.6511 24.3122 27.6512L24.3123 27.6513L24.2305 27.732L24.2273 27.7288C24.2027 27.7044 24.0329 27.5406 23.8003 27.431C23.5671 27.3211 23.2822 27.2702 23.0146 27.4515L22.988 27.4701C22.7186 27.6642 22.5948 27.9363 22.5386 28.166C22.5096 28.2844 22.4988 28.3906 22.4954 28.467C22.4937 28.5052 22.4938 28.5359 22.4943 28.5568C22.4945 28.5672 22.4949 28.5751 22.4952 28.5804C22.4954 28.583 22.4955 28.585 22.4956 28.5862C22.4956 28.5868 22.4957 28.5872 22.4957 28.5875L22.4956 28.5877C22.4955 28.5877 22.495 28.5877 22.4936 28.5878ZM22.4488 28.0592C22.5177 27.8301 22.6536 27.5693 22.9207 27.3768L22.9501 27.3563C23.2492 27.1537 23.5638 27.2028 23.8098 27.3094L22.7484 26.2434L22.3051 26.4408L22.4488 28.0592Z" fill="white"/>
<path d="M17.4678 28.6221C17.4678 28.6251 17.4679 28.6266 17.4679 28.6266L17.4678 28.6221C17.4656 28.5505 17.4242 27.6458 16.7294 27.5319C16.0058 27.4133 15.5174 28.0212 15.5174 28.0212L16.8799 26.299L17.4136 26.4873L17.4678 28.6221Z" fill="white"/>
<path d="M15.5605 28.0558L15.4722 27.9855L16.8602 26.2311L17.47 26.4462L17.5252 28.6206L17.5251 28.6243C17.5251 28.6247 17.5253 28.625 17.5253 28.6252C17.5253 28.6253 17.5252 28.6255 17.5252 28.6256L17.5252 28.6257L17.4103 28.6281L17.4102 28.6236C17.4091 28.589 17.3984 28.3533 17.3047 28.1138C17.2109 27.8737 17.039 27.6409 16.72 27.5887L16.6879 27.5839C16.3589 27.5397 16.0818 27.6522 15.8831 27.7804C15.7807 27.8465 15.6999 27.9162 15.6448 27.9693C15.6174 27.9959 15.5963 28.0183 15.5824 28.0338C15.5754 28.0415 15.5702 28.0476 15.5668 28.0516C15.5651 28.0536 15.5638 28.0551 15.5631 28.0561C15.5627 28.0565 15.5624 28.0568 15.5623 28.057L15.562 28.0572C15.5619 28.0571 15.5616 28.0567 15.5605 28.0558ZM15.8914 27.6411C16.0989 27.5221 16.3769 27.4261 16.7031 27.4699L16.7385 27.4752C17.0951 27.5336 17.2898 27.7854 17.3952 28.032L17.3571 26.5282L16.8994 26.3669L15.8914 27.6411Z" fill="white"/>
<path d="M12.0974 24.3802C12.095 24.3818 12.0937 24.3827 12.0937 24.3827L12.0974 24.3802C12.1566 24.3397 12.896 23.8167 12.6169 23.1702C12.3263 22.497 11.551 22.4138 11.551 22.4138L13.7361 22.6316L13.8656 23.1826L12.0974 24.3802Z" fill="white"/>
<path d="M11.5451 22.4689L11.5567 22.3566L13.7827 22.5785L13.9306 23.208L12.1297 24.4277L12.1266 24.4297C12.1263 24.4299 12.1261 24.4302 12.1259 24.4303C12.1258 24.4304 12.1257 24.4304 12.1256 24.4304L12.1255 24.4305L12.0614 24.3351L12.0652 24.3326C12.0937 24.313 12.2864 24.1768 12.4375 23.9687C12.589 23.7602 12.6922 23.4898 12.5641 23.193L12.5508 23.1634C12.4105 22.8625 12.1662 22.69 11.9511 22.5919C11.8401 22.5413 11.7379 22.5109 11.6634 22.4932C11.6262 22.4844 11.596 22.4788 11.5755 22.4754C11.5652 22.4737 11.5573 22.4726 11.5521 22.4719C11.5495 22.4716 11.5475 22.4713 11.5463 22.4712C11.5457 22.4711 11.5453 22.4711 11.545 22.471L11.5448 22.4709C11.5448 22.4708 11.5449 22.4703 11.5451 22.4689ZM12.0728 22.5237C12.285 22.6342 12.5158 22.8164 12.655 23.1147L12.6696 23.1474C12.8128 23.4791 12.7059 23.7789 12.5552 24.0007L13.8006 23.1572L13.6895 22.6847L12.0728 22.5237Z" fill="white"/>
<path d="M27.5993 23.8296L27.529 23.7443C27.1862 23.328 27.4461 22.6976 27.9827 22.644L27.9885 22.7012L27.9942 22.7583C27.5489 22.8028 27.3333 23.3259 27.6177 23.6713L27.688 23.7565L27.5993 23.8296Z" fill="white"/>
<path d="M27.9751 17.3547L27.9604 17.3512C27.3702 17.21 27.1681 16.4732 27.6037 16.0507L27.6437 16.0919L27.6837 16.1332C27.3132 16.4925 27.4851 17.1193 27.9871 17.2394L28.0019 17.2429L27.9751 17.3547Z" fill="white"/>
<path d="M23.7715 12.4589C23.3271 12.8098 22.6763 12.5104 22.6464 11.9523L22.6454 11.9255L22.6439 11.8401L22.7014 11.8391L22.7588 11.8381L22.7604 11.9235L22.7627 11.9679C22.8033 12.4194 23.3351 12.6569 23.7002 12.3687L23.7715 12.4589Z" fill="white"/>
<path d="M23.6781 20C23.6781 17.9686 22.0314 16.3218 20 16.3218C17.9686 16.3218 16.3218 17.9686 16.3218 20C16.3218 22.0314 17.9686 23.6781 20 23.6781C22.0314 23.6781 23.6781 22.0314 23.6781 20ZM25.977 20C25.977 23.301 23.301 25.977 20 25.977C16.6989 25.977 14.0229 23.301 14.0229 20C14.0229 16.6989 16.6989 14.0229 20 14.0229C23.301 14.0229 25.977 16.6989 25.977 20Z" fill="white"/>
<path d="M21.839 20C21.839 21.0157 21.0157 21.8391 20 21.8391C18.9843 21.8391 18.1609 21.0157 18.1609 20C18.1609 18.9843 18.9843 18.1609 20 18.1609C21.0157 18.1609 21.839 18.9843 21.839 20Z" fill="white"/>
</svg>
